<svg width="240" height="128" viewBox="0 0 240 128" fill="none" xmlns="http://www.w3.org/2000/svg">
<path d="M0 127.376V93.9941H22.2857C29.7231 93.9941 33.4418 95.837 33.4418 99.549V105.025C33.4418 108.816 30.6725 110.685 25.1868 110.685C30.6725 110.79 33.4154 112.633 33.4418 116.24V121.795C33.4418 125.507 29.7231 127.35 22.2857 127.35H0V127.376ZM22.2857 99.549H11.1297V107.895H22.2857V99.549ZM22.2857 113.449H11.1297V121.795H22.2857V113.449Z" fill="black"/>
<path d="M38.9536 121.847V94.0195H50.1097V121.82H61.2657V94.0195H72.4217V121.82C72.4217 125.532 68.7031 127.375 61.2657 127.375H50.1097C42.6723 127.375 38.9536 125.532 38.9536 121.847Z" fill="black"/>
<path d="M77.9609 127.376V93.9941H100.247C107.684 93.9941 111.403 95.837 111.403 99.549V121.795C111.403 125.507 107.684 127.35 100.247 127.35H77.9609V127.376ZM100.247 99.549H89.0906V121.795H100.247V99.549Z" fill="black"/>
<path d="M116.914 121.847V99.6271C116.914 95.8887 120.633 94.0195 128.07 94.0195H139.226C146.664 94.0195 150.382 95.8624 150.382 99.5744V121.82C150.382 125.532 146.664 127.375 139.226 127.375H128.07C120.633 127.375 116.914 125.532 116.914 121.847ZM139.2 99.5744H128.044V121.82H139.2V99.5744Z" fill="black"/>
<path d="M196.853 127.402H185.697L181.187 112.659L175.912 127.402H164.756L153.864 94.0195H166.18L172.51 113.58L177.31 94.0195H187.49L193.451 113.58L198.251 94.0195L208.246 94.0722L196.853 127.402Z" fill="black"/>
<path d="M217.029 93.9941H228.185L239.077 127.376H226.761L224.941 121.848H216.976L215.631 127.376H205.609L217.029 93.9941ZM223.121 116.319L220.431 107.816L218.347 116.319H223.147H223.121Z" fill="black"/>
<path d="M125.063 76.3548C128.914 76.2495 132.791 76.4601 136.615 76.1968C143.736 75.8282 150.567 73.3009 155.525 69.4046C158.162 67.2984 160.272 64.8238 161.723 62.1121V45.2368C161.723 45.2368 161.617 45.0262 161.565 44.9209C149.565 55.5305 137.143 65.8242 125.063 76.3811V76.3548Z" fill="black"/>
<path d="M161.037 12.9345C160.905 12.7239 160.642 12.329 160.51 12.1447C159.007 9.95956 157.002 7.98507 154.708 6.24752C149.802 2.61447 143.182 0.455691 136.378 0.0344665C133.081 0.0344665 129.758 -0.0181811 126.435 0.0607985C121.741 -0.0445076 117.02 0.00814547 112.325 0.0607985C104.492 -0.0445076 96.6329 0.034472 88.7999 0.0607985H78.3296V8.61691C78.3296 10.8283 78.2769 13.0398 78.3296 15.2775C78.2769 17.8049 78.2505 20.3585 78.3296 22.8859C78.2505 27.5194 78.2769 32.1265 78.3032 36.76C78.3032 39.0241 78.3032 41.2882 78.3032 43.5522C78.2505 48.8965 78.3032 54.2408 78.3032 59.5588C81.3626 57.1894 84.2109 54.6357 87.0593 52.1084C86.9274 48.4753 87.112 44.8422 86.9274 41.2355C87.0856 36.918 86.9274 32.5741 86.9538 28.2565C87.0065 24.2285 86.9538 20.2006 86.9538 16.1726C86.9538 13.2241 86.9802 10.3018 86.901 7.35324C87.4021 7.01099 87.956 6.58979 88.7208 6.66877C95.4725 6.66877 102.224 6.72143 109.002 6.66877C117.916 6.58979 126.857 6.72143 135.771 6.66877C139.094 6.95837 142.365 7.69548 145.187 9.09079C146.848 9.80161 148.114 10.9336 149.723 11.7234C149.802 12.4079 150.62 12.7765 151.094 13.2767C156 18.3051 156.501 25.5975 152.149 30.9418C149.011 34.5749 144.765 37.5235 141.152 40.8406C132.712 47.9751 124.431 55.2149 115.991 62.3494C110.69 67.0882 104.967 71.5637 99.8241 76.4341C103.675 76.3025 107.525 76.4867 111.349 76.3025C126.831 63.1392 142.18 49.9233 157.582 36.7337C159.297 35.1278 160.668 33.3112 161.67 31.4157V14.2771C161.433 13.8296 161.248 13.3557 160.958 12.9345H161.037Z" fill="black"/>
<path d="M139.332 29.8621C140.598 28.5721 142.338 27.5717 143.261 26.0711C145.239 23.0698 144.185 19.0682 140.782 16.9094L140.861 16.8304C138.989 15.8827 136.905 15.0139 134.611 15.0929C128.598 15.1455 122.585 15.0402 116.571 15.1455C110.426 15.0402 104.255 15.1455 98.0834 15.1455C98.1098 19.3315 98.0571 23.4911 98.0834 27.677C97.978 32.679 98.1626 37.7074 97.9516 42.7094C100.958 40.3664 103.701 37.839 106.576 35.3906C106.839 31.2574 106.576 27.0978 106.655 22.9645C106.655 22.7013 106.629 22.1747 106.629 21.9115L106.919 21.7272C116.123 21.7272 125.354 21.7272 134.585 21.7798C134.98 22.0694 135.349 22.359 135.692 22.6749C130.154 27.7296 124.22 32.5474 118.523 37.5231C105.283 48.8435 92.0966 60.1902 78.8571 71.5106C78.8571 71.5106 78.8835 71.5633 78.9098 71.5633L78.2769 72.1162V76.3811H85.134L86.7164 74.8278C104.255 59.848 121.714 44.8155 139.253 29.8357L139.332 29.8621Z" fill="black"/>
</svg>
