<svg width="240" height="189" viewBox="0 0 240 189" fill="none" xmlns="http://www.w3.org/2000/svg">
<path d="M123.575 11.3398H154.479C152.129 12.6097 150.529 15.0903 150.529 17.945C150.529 20.7997 152.168 23.3492 154.578 24.6092L136.168 83.2386C132.03 84.5675 129.531 86.2803 129.531 88.1506C129.531 88.5837 129.669 89.007 129.916 89.4106V89.45C129.916 100.209 142.4 108.931 157.798 108.931C158.084 108.931 158.37 108.931 158.657 108.921L123.556 108.931V11.3398H123.575ZM158.064 13.7319C160.405 13.7319 162.291 15.6219 162.291 17.945C162.291 20.2681 160.405 22.1581 158.064 22.1581C155.724 22.1581 153.837 20.2681 153.837 17.945C153.837 15.6219 155.733 13.7319 158.064 13.7319ZM157.185 25.3967V80.5709C149.857 80.5808 143.21 81.3584 138.262 82.6283L156.296 25.2294C156.583 25.2983 156.879 25.3573 157.185 25.3869V25.3967ZM157.185 81.4372V95.7106C143.161 95.622 131.882 92.4622 131.882 88.5739C131.882 84.6856 143.161 81.5258 157.185 81.4273V81.4372Z" fill="#4E3E33"/>
<path d="M115.615 11.3398H84.7014C87.0619 12.6097 88.652 15.0903 88.652 17.945C88.652 20.7997 87.0125 23.3492 84.6026 24.6092L103.022 83.2386C107.161 84.5675 109.659 86.2803 109.659 88.1506C109.659 88.5837 109.521 89.007 109.264 89.4106V89.45C109.264 100.209 96.7804 108.931 81.3829 108.931C81.0965 108.931 80.81 108.931 80.5236 108.921L115.615 108.931V11.3398ZM81.1261 13.7319C78.7952 13.7319 76.8989 15.6219 76.8989 17.945C76.8989 20.2681 78.7952 22.1581 81.1261 22.1581C83.4569 22.1581 85.3532 20.2681 85.3532 17.945C85.3532 15.6219 83.4569 13.7319 81.1261 13.7319ZM82.0051 25.3967V80.5709C89.3236 80.5808 95.9804 81.3584 100.929 82.6283L82.894 25.2294C82.6076 25.2983 82.3113 25.3573 82.0051 25.3869V25.3967ZM82.0051 81.4372V95.7106C96.0298 95.622 107.309 92.4622 107.309 88.5739C107.309 84.6856 96.0397 81.5258 82.0051 81.4273V81.4372Z" fill="#CEBFB4"/>
<path d="M119.635 0C122.074 0 124.049 1.96875 124.049 4.40016C124.049 6.83156 122.074 8.80031 119.635 8.80031C117.195 8.80031 115.22 6.83156 115.22 4.40016C115.22 1.96875 117.195 0 119.635 0Z" fill="#4E3E33"/>
<path d="M123.575 11.3399H154.479C152.128 12.6098 150.528 15.0904 150.528 17.9451C150.528 20.7998 152.168 23.3493 154.578 24.6093L150.528 37.5046C143.002 46.0588 133.857 53.1562 123.565 58.3241V11.3596L123.575 11.3399ZM119.635 0.00976562C122.074 0.00976562 124.049 1.97852 124.049 4.40992C124.049 6.84133 122.074 8.81008 119.635 8.81008C117.195 8.81008 115.22 6.84133 115.22 4.40992C115.22 1.97852 117.195 0.00976562 119.635 0.00976562ZM157.185 28.9504C156.039 30.6238 154.844 32.2579 153.6 33.8427L156.306 25.2393C156.593 25.3082 156.889 25.3673 157.195 25.3968V28.9504H157.185ZM158.064 13.7319C160.405 13.7319 162.291 15.6219 162.291 17.9451C162.291 20.2682 160.405 22.1582 158.064 22.1582C155.723 22.1582 153.837 20.2682 153.837 17.9451C153.837 15.6219 155.733 13.7319 158.064 13.7319Z" fill="url(#paint0_linear_2_2862)"/>
<path d="M115.615 11.3398H84.7014C87.0619 12.6097 88.652 15.0903 88.652 17.945C88.652 20.7997 87.0125 23.3492 84.6026 24.6092L97.7977 66.6223C103.971 65.638 109.936 64.0236 115.615 61.8383V11.3595V11.3398ZM95.9804 66.8783C91.9409 67.4394 87.8125 67.7347 83.615 67.7347C83.0816 67.7347 82.5483 67.7248 82.015 67.715V25.3869C82.3211 25.3573 82.6174 25.2983 82.9039 25.2294L95.9903 66.8783H95.9804ZM81.1261 13.7319C78.7952 13.7319 76.8989 15.6219 76.8989 17.945C76.8989 20.2681 78.7952 22.1581 81.1261 22.1581C83.4569 22.1581 85.3532 20.2681 85.3532 17.945C85.3532 15.6219 83.4569 13.7319 81.1261 13.7319Z" fill="url(#paint1_linear_2_2862)"/>
<path d="M3.79259 140.007C3.79259 141.395 3.79259 142.695 3.79259 143.876C3.79259 145.067 3.76296 146.13 3.73333 147.055C3.7037 147.991 3.65432 148.768 3.58519 149.369C3.5358 149.782 3.4568 150.166 3.37779 150.511C3.2889 150.835 3.17038 151.121 3.00248 151.328C2.84445 151.544 2.62716 151.682 2.34074 151.741C2.13333 151.78 1.91604 151.83 1.68888 151.859C1.46172 151.889 1.23459 151.908 1.03706 151.908C0.90866 151.908 0.829629 151.938 0.770369 151.987C0.71111 152.036 0.69137 152.095 0.69137 152.164C0.69137 152.292 0.750612 152.371 0.859254 152.43C0.977773 152.489 1.14567 152.509 1.38271 152.509C1.71851 152.509 2.11359 152.509 2.56791 152.489C3.01236 152.469 3.46668 152.46 3.90124 152.45C4.34569 152.43 4.71113 152.42 5.0173 152.41C5.32348 152.391 5.49138 152.381 5.54076 152.381C5.60002 152.381 5.79752 152.391 6.13332 152.41C6.45925 152.42 6.88397 152.44 7.39755 152.45C7.90125 152.46 8.45431 152.479 9.06666 152.489C9.65925 152.509 10.2716 152.509 10.8642 152.509C11.1012 152.509 11.279 152.479 11.3877 152.41C11.4963 152.351 11.5556 152.263 11.5556 152.164C11.5556 152.095 11.5358 152.036 11.4864 151.987C11.4272 151.938 11.3383 151.908 11.2099 151.908C11.0716 151.908 10.8938 151.908 10.6667 151.889C10.4395 151.869 10.2025 151.849 9.94568 151.83C9.69877 151.8 9.4716 151.771 9.25432 151.741C8.82963 151.682 8.49383 151.534 8.26667 151.328C8.02963 151.121 7.8716 150.835 7.77284 150.511C7.67407 150.176 7.60494 149.792 7.56543 149.369C7.48642 148.758 7.44691 147.991 7.40741 147.055C7.37778 146.13 7.35802 145.067 7.34815 143.876C7.34815 142.685 7.34815 141.395 7.34815 140.007V122.269C7.34815 122.052 7.36791 121.875 7.41729 121.727C7.47655 121.58 7.55556 121.491 7.68395 121.442C7.89136 121.353 8.15802 121.294 8.48395 121.245C8.80988 121.196 9.17531 121.176 9.54074 121.176C9.79753 121.176 10.1432 121.176 10.5679 121.186C10.9926 121.196 11.4864 121.265 12.0296 121.373C12.5728 121.501 13.1358 121.708 13.7284 122.013C14.321 122.318 14.9037 122.751 15.4864 123.342C16.0593 123.923 16.5037 124.533 16.8395 125.163C17.1654 125.783 17.4123 126.413 17.5605 127.004C17.7185 127.604 17.8074 128.165 17.8568 128.687C17.8963 129.199 17.916 129.632 17.916 129.996C17.9062 131 17.7185 131.916 17.3333 132.772C16.9481 133.629 16.4247 134.367 15.7432 135.007C15.0617 135.646 14.2716 136.139 13.363 136.493C12.4543 136.847 11.4765 137.025 10.4198 137.025C9.97531 137.025 9.66914 137.044 9.50123 137.094C9.33333 137.143 9.24444 137.251 9.25432 137.418C9.2642 137.527 9.31358 137.605 9.41234 137.645C9.51111 137.694 9.60989 137.724 9.7284 137.724C9.84692 137.743 10.0049 137.763 10.1827 137.763C10.3704 137.763 10.5185 137.763 10.637 137.763C12.1778 137.763 13.6 137.507 14.8938 137.025C16.1877 136.523 17.3136 135.824 18.2716 134.918C19.2198 134.012 19.9605 132.93 20.4839 131.67C21.0074 130.419 21.2741 129.022 21.2839 127.486C21.2839 126.718 21.1654 126.009 20.9383 125.34C20.7111 124.681 20.4346 124.08 20.1086 123.578C19.7728 123.066 19.4469 122.653 19.121 122.357C18.9531 122.19 18.6864 121.974 18.3309 121.698C17.9654 121.432 17.4815 121.166 16.8593 120.881C16.2469 120.605 15.4568 120.379 14.5086 120.192C13.5605 120.005 12.4148 119.906 11.0617 119.896C10.558 119.896 10.0346 119.896 9.50123 119.916C8.9679 119.936 8.44445 119.946 7.94075 119.956C7.43705 119.975 6.98272 119.985 6.57778 120.005C6.17284 120.015 5.84692 120.024 5.60001 120.024C5.51112 120.024 5.29383 120.015 4.9679 120.005C4.64198 119.985 4.22718 119.975 3.75311 119.956C3.27903 119.956 2.77533 119.926 2.24199 119.916C1.71854 119.906 1.20493 119.896 0.701226 119.896C0.464189 119.896 0.286433 119.916 0.167914 119.975C0.0592725 120.034 0 120.113 0 120.241C0 120.33 0.0395219 120.399 0.108658 120.438C0.18767 120.477 0.266673 120.507 0.345685 120.507C0.483957 120.507 0.641992 120.507 0.81977 120.526C1.00743 120.526 1.18519 120.546 1.37285 120.566C1.55063 120.586 1.69877 120.605 1.81728 120.645C2.29136 120.733 2.6568 120.891 2.91359 121.088C3.18026 121.275 3.35804 121.55 3.47656 121.875C3.5852 122.2 3.65432 122.604 3.67407 123.096C3.69383 123.361 3.70371 123.647 3.71359 123.942C3.71359 124.247 3.73334 124.612 3.74322 125.035C3.74322 125.458 3.74322 125.99 3.74322 126.63C3.74322 127.26 3.74322 128.057 3.74322 129.002V140.017L3.79259 140.007ZM48.2864 174.244C48.2864 175.356 48.4049 176.469 48.6716 177.601C48.9284 178.742 49.3136 179.835 49.837 180.918C50.3506 181.991 51.0222 182.995 51.8222 183.92C52.6222 184.855 53.5901 185.682 54.6864 186.381C55.7926 187.09 57.0469 187.641 58.4593 188.045C59.8716 188.448 61.4518 188.645 63.1901 188.655C65.0272 188.655 66.7358 188.389 68.3062 187.887C69.8765 187.375 71.2889 186.667 72.5333 185.741C73.7877 184.826 74.8543 183.733 75.7333 182.483C76.6123 181.233 77.2938 179.865 77.758 178.378C78.2222 176.892 78.4593 175.317 78.4593 173.673C78.4494 171.527 78.0642 169.607 77.3136 167.924C76.5531 166.221 75.4963 164.774 74.1432 163.583C72.7802 162.392 71.1901 161.486 69.363 160.856C67.5358 160.226 65.5407 159.911 63.3876 159.911C61.6296 159.911 60.0494 160.138 58.6173 160.561C57.1852 160.994 55.9111 161.575 54.7951 162.313C53.679 163.061 52.7111 163.908 51.8914 164.863C51.0716 165.827 50.4 166.831 49.8667 167.904C49.3333 168.977 48.9383 170.041 48.6716 171.133C48.4148 172.216 48.2765 173.25 48.2765 174.254L48.2864 174.244ZM130.252 184.166C130.015 184.777 129.748 185.338 129.481 185.81C129.205 186.293 128.879 186.676 128.484 186.972C128.099 187.267 127.625 187.464 127.052 187.533C126.884 187.553 126.696 187.582 126.469 187.592C126.242 187.612 126.064 187.621 125.926 187.621C125.837 187.621 125.758 187.651 125.689 187.7C125.62 187.769 125.59 187.828 125.58 187.927C125.58 188.025 125.649 188.104 125.768 188.153C125.896 188.202 126.074 188.222 126.311 188.222C126.844 188.222 127.378 188.212 127.921 188.192C128.454 188.173 128.928 188.153 129.343 188.133C129.748 188.114 130.015 188.104 130.163 188.104C130.281 188.104 130.469 188.104 130.756 188.124C131.022 188.133 131.338 188.153 131.694 188.163C132.049 188.183 132.395 188.192 132.731 188.202C133.067 188.222 133.353 188.222 133.59 188.222C133.758 188.222 133.906 188.202 133.995 188.153C134.094 188.104 134.143 188.025 134.143 187.927C134.143 187.838 134.123 187.769 134.064 187.7C134.005 187.651 133.906 187.621 133.748 187.621H133.402C133.185 187.621 132.978 187.592 132.77 187.523C132.573 187.464 132.415 187.346 132.296 187.208C132.178 187.06 132.109 186.873 132.099 186.627C132.099 186.302 132.148 185.928 132.247 185.495C132.346 185.062 132.494 184.629 132.662 184.166L134.825 178.299C134.874 178.191 134.923 178.122 134.993 178.073C135.052 178.024 135.131 177.994 135.22 177.994H144C144.099 177.994 144.178 178.014 144.227 178.034C144.277 178.063 144.316 178.122 144.346 178.211L147.763 186.617C147.842 186.814 147.872 186.991 147.832 187.119C147.802 187.257 147.743 187.366 147.664 187.454C147.575 187.533 147.496 187.582 147.417 187.612C147.328 187.641 147.269 187.681 147.22 187.71C147.18 187.73 147.151 187.789 147.151 187.868C147.151 187.966 147.289 188.035 147.546 188.064C147.802 188.094 148.119 188.114 148.494 188.124C149.156 188.143 149.817 188.163 150.469 188.173C151.121 188.183 151.723 188.192 152.277 188.192C152.83 188.202 153.304 188.202 153.699 188.202H154.509C154.726 188.202 154.933 188.183 155.101 188.133C155.269 188.084 155.358 188.005 155.368 187.907C155.368 187.799 155.309 187.72 155.21 187.671C155.121 187.621 155.002 187.602 154.894 187.602C154.696 187.602 154.469 187.582 154.202 187.562C153.946 187.533 153.669 187.474 153.383 187.385C153.175 187.336 152.958 187.238 152.731 187.119C152.494 186.991 152.237 186.795 151.97 186.529C151.704 186.243 151.427 185.859 151.111 185.367C150.805 184.865 150.479 184.196 150.133 183.399C149.798 182.591 149.393 181.627 148.928 180.495C148.454 179.363 147.96 178.142 147.417 176.823C146.874 175.504 146.331 174.165 145.778 172.797C145.225 171.429 144.672 170.1 144.158 168.81C143.635 167.521 143.151 166.349 142.716 165.276C142.281 164.203 141.916 163.307 141.61 162.589C141.314 161.87 141.116 161.388 141.017 161.161C140.839 160.738 140.681 160.423 140.563 160.187C140.454 159.951 140.296 159.833 140.109 159.823C140.02 159.813 139.941 159.852 139.862 159.921C139.783 160 139.684 160.138 139.585 160.335C139.486 160.551 139.358 160.846 139.19 161.24L130.232 184.186L130.252 184.166ZM135.743 176.488C135.615 176.488 135.565 176.4 135.615 176.232L139.16 166.182C139.378 165.621 139.595 165.621 139.812 166.182L143.575 176.232C143.595 176.321 143.605 176.39 143.585 176.429C143.575 176.469 143.526 176.488 143.437 176.488H135.733H135.743ZM171.358 162.234C171.121 161.624 170.923 161.171 170.756 160.906C170.588 160.64 170.439 160.502 170.311 160.512C170.242 160.502 170.163 160.541 170.074 160.61C169.985 160.699 169.877 160.856 169.738 161.102C169.62 161.349 169.452 161.703 169.274 162.185L161.304 182.719H161.215C161.146 182.493 161.017 182.05 160.82 181.41C160.632 180.76 160.395 179.973 160.118 179.038C159.842 178.103 159.556 177.089 159.239 175.996C158.933 174.913 158.617 173.821 158.291 172.708C157.975 171.606 157.679 170.562 157.402 169.578C157.116 168.594 156.879 167.737 156.672 167.009C156.464 166.27 156.326 165.729 156.227 165.384C156.01 164.567 155.832 163.869 155.704 163.268C155.565 162.677 155.496 162.254 155.496 162.008C155.496 161.762 155.556 161.585 155.664 161.476C155.763 161.358 155.881 161.27 156.02 161.23C156.247 161.122 156.494 161.063 156.741 161.043C156.988 161.014 157.205 161.004 157.363 161.014C157.452 161.014 157.541 160.974 157.62 160.915C157.699 160.866 157.738 160.778 157.748 160.669C157.748 160.581 157.709 160.522 157.6 160.472C157.491 160.433 157.314 160.413 157.057 160.413C156.415 160.413 155.812 160.423 155.249 160.433C154.696 160.453 154.222 160.463 153.837 160.472C153.442 160.492 153.185 160.502 153.067 160.502C152.919 160.502 152.622 160.492 152.178 160.472C151.714 160.463 151.17 160.443 150.538 160.433C149.896 160.423 149.244 160.413 148.563 160.413C148.385 160.413 148.247 160.433 148.128 160.472C148.02 160.522 147.96 160.581 147.96 160.669C147.96 160.778 148 160.866 148.069 160.915C148.138 160.974 148.227 161.014 148.306 161.014C148.395 161.014 148.553 161.014 148.751 161.034C148.958 161.053 149.175 161.073 149.412 161.093C149.639 161.132 149.847 161.171 150.035 161.23C150.36 161.339 150.637 161.486 150.854 161.673C151.072 161.851 151.279 162.136 151.457 162.49C151.635 162.855 151.822 163.357 152.02 163.996L158.775 185.751C159.032 186.568 159.249 187.198 159.417 187.612C159.595 188.025 159.733 188.311 159.862 188.448C159.99 188.586 160.119 188.645 160.247 188.635C160.385 188.645 160.523 188.586 160.642 188.478C160.77 188.37 160.909 188.163 161.047 187.887C161.195 187.602 161.373 187.208 161.59 186.696C161.788 186.194 162.054 185.525 162.39 184.678C162.726 183.832 163.111 182.857 163.526 181.784C163.941 180.711 164.385 179.579 164.849 178.378C165.323 177.187 165.778 176.006 166.242 174.815C166.696 173.624 167.141 172.501 167.556 171.429C167.96 170.365 168.336 169.42 168.652 168.594C168.978 167.767 169.235 167.127 169.422 166.654L176.869 186.726C177.126 187.434 177.353 187.927 177.541 188.212C177.738 188.498 177.936 188.635 178.123 188.626C178.262 188.645 178.4 188.576 178.519 188.419C178.647 188.261 178.805 187.966 178.993 187.503C179.18 187.051 179.437 186.371 179.763 185.476C180.02 184.777 180.326 183.91 180.691 182.867C181.047 181.814 181.452 180.662 181.877 179.402C182.301 178.132 182.746 176.823 183.19 175.474C183.644 174.136 184.089 172.807 184.514 171.517C184.958 170.218 185.363 169.017 185.738 167.904C186.123 166.802 186.449 165.857 186.736 165.069C186.983 164.38 187.22 163.78 187.457 163.239C187.694 162.707 187.951 162.254 188.237 161.91C188.523 161.555 188.839 161.309 189.215 161.181C189.373 161.142 189.531 161.093 189.719 161.083C189.906 161.053 190.074 161.043 190.222 161.024C190.38 161.014 190.469 161.004 190.519 161.004C190.647 160.994 190.736 160.955 190.795 160.876C190.844 160.787 190.874 160.709 190.874 160.61C190.874 160.551 190.825 160.502 190.746 160.453C190.657 160.413 190.528 160.394 190.36 160.394C189.965 160.394 189.541 160.404 189.106 160.413C188.662 160.433 188.277 160.443 187.941 160.453C187.605 160.472 187.388 160.482 187.279 160.482C187.16 160.482 186.914 160.472 186.548 160.453C186.183 160.443 185.728 160.423 185.185 160.413C184.642 160.404 184.039 160.394 183.378 160.394C183.151 160.394 182.973 160.413 182.874 160.453C182.785 160.502 182.736 160.561 182.736 160.65C182.736 160.728 182.775 160.797 182.835 160.876C182.894 160.955 182.973 160.984 183.081 160.994C183.654 160.994 184.089 161.034 184.385 161.132C184.681 161.221 184.879 161.349 184.978 161.506C185.086 161.664 185.126 161.86 185.126 162.077C185.126 162.225 185.126 162.392 185.106 162.579C185.086 162.756 185.037 162.983 184.988 163.268C184.919 163.554 184.83 163.918 184.701 164.371C184.474 165.158 184.207 166.093 183.872 167.156C183.556 168.21 183.2 169.342 182.825 170.543C182.459 171.753 182.074 172.964 181.689 174.175C181.304 175.396 180.928 176.547 180.583 177.66C180.237 178.772 179.911 179.756 179.635 180.642C179.348 181.509 179.141 182.198 178.973 182.719H178.795L171.348 162.215L171.358 162.234ZM112.622 171.045V166.133C112.622 165.591 112.622 165.148 112.622 164.784C112.622 164.43 112.622 164.124 112.642 163.869C112.642 163.622 112.662 163.366 112.662 163.15C112.681 162.717 112.741 162.362 112.82 162.087C112.899 161.801 113.047 161.585 113.235 161.427C113.432 161.27 113.719 161.152 114.094 161.073C114.311 161.053 114.548 161.034 114.785 161.024C115.022 160.994 115.21 160.994 115.348 160.994C115.427 160.994 115.486 160.965 115.556 160.915C115.615 160.856 115.644 160.807 115.654 160.738C115.654 160.63 115.605 160.551 115.496 160.502C115.398 160.453 115.24 160.433 115.042 160.433C114.736 160.433 114.36 160.443 113.916 160.453C113.472 160.453 113.017 160.472 112.563 160.482C112.119 160.502 111.723 160.502 111.407 160.512C111.091 160.522 110.904 160.531 110.844 160.531C110.785 160.531 110.607 160.522 110.321 160.512C110.035 160.512 109.679 160.502 109.254 160.482C108.83 160.482 108.375 160.463 107.901 160.453C107.417 160.453 106.963 160.433 106.519 160.433C106.301 160.433 106.153 160.453 106.054 160.502C105.956 160.551 105.906 160.62 105.906 160.738C105.906 160.807 105.946 160.876 106.005 160.935C106.074 160.994 106.133 161.024 106.212 161.034C106.331 161.034 106.469 161.034 106.637 161.053C106.795 161.053 106.963 161.073 107.111 161.083C107.269 161.102 107.407 161.112 107.506 161.132C107.921 161.181 108.237 161.299 108.454 161.457C108.672 161.614 108.82 161.841 108.899 162.116C108.988 162.392 109.047 162.746 109.067 163.16C109.086 163.386 109.096 163.632 109.106 163.878C109.116 164.134 109.126 164.439 109.126 164.794C109.136 165.158 109.146 165.611 109.146 166.142C109.146 166.684 109.146 167.353 109.146 168.151V177.522C109.146 178.713 109.146 179.806 109.146 180.819C109.146 181.833 109.116 182.729 109.086 183.526C109.057 184.314 109.007 184.954 108.938 185.476C108.889 185.84 108.83 186.145 108.76 186.421C108.701 186.696 108.612 186.913 108.484 187.08C108.365 187.247 108.178 187.356 107.931 187.415C107.753 187.454 107.556 187.503 107.348 187.533C107.141 187.562 106.943 187.582 106.765 187.582C106.657 187.592 106.578 187.621 106.538 187.681C106.489 187.749 106.469 187.809 106.469 187.887C106.469 187.996 106.519 188.074 106.627 188.114C106.736 188.163 106.884 188.192 107.081 188.192C107.398 188.192 107.743 188.192 108.119 188.163C108.504 188.153 108.889 188.124 109.284 188.104C109.659 188.084 109.995 188.074 110.272 188.074C110.558 188.064 110.746 188.064 110.844 188.064C111.398 188.064 112.02 188.074 112.691 188.094C113.373 188.104 114.143 188.124 115.002 188.153C115.881 188.192 116.869 188.222 117.956 188.242C119.042 188.261 120.277 188.281 121.63 188.281C122.133 188.281 122.538 188.281 122.825 188.242C123.131 188.222 123.348 188.173 123.506 188.104C123.664 188.035 123.773 187.927 123.852 187.809C123.921 187.681 124 187.503 124.059 187.287C124.138 187.011 124.207 186.686 124.277 186.322C124.336 185.948 124.405 185.574 124.454 185.19C124.504 184.816 124.543 184.491 124.573 184.206C124.602 183.92 124.622 183.733 124.622 183.625C124.622 183.428 124.602 183.29 124.553 183.202C124.514 183.103 124.444 183.064 124.356 183.064C124.247 183.064 124.158 183.113 124.099 183.202C124.03 183.29 123.99 183.408 123.97 183.536C123.901 183.91 123.802 184.275 123.644 184.639C123.496 184.993 123.299 185.328 123.062 185.613C122.756 185.968 122.37 186.224 121.906 186.381C121.442 186.539 120.919 186.637 120.346 186.686C119.763 186.736 119.131 186.745 118.469 186.736C117.481 186.736 116.642 186.706 115.96 186.647C115.279 186.578 114.736 186.489 114.311 186.352C113.906 186.234 113.59 186.066 113.393 185.859C113.165 185.653 112.998 185.249 112.879 184.639C112.77 184.029 112.701 183.152 112.662 182.011C112.622 180.869 112.612 179.412 112.612 177.62V171.054L112.622 171.045ZM80.9284 177.522C80.9284 178.713 80.9284 179.806 80.9185 180.819C80.9185 181.833 80.8889 182.729 80.8593 183.526C80.8296 184.314 80.7802 184.954 80.7111 185.476C80.6617 185.84 80.6025 186.145 80.5333 186.43C80.4741 186.706 80.3852 186.932 80.2667 187.09C80.1481 187.267 79.9605 187.375 79.7136 187.415C79.5358 187.444 79.3383 187.474 79.1309 187.513C78.9235 187.553 78.7259 187.582 78.5481 187.582C78.4395 187.592 78.3605 187.621 78.3111 187.681C78.2617 187.749 78.242 187.809 78.242 187.887C78.242 187.996 78.2914 188.074 78.4 188.114C78.4988 188.163 78.6568 188.192 78.8543 188.192C79.1605 188.192 79.5062 188.192 79.9111 188.173C80.3062 188.153 80.7111 188.143 81.1062 188.124C81.4914 188.104 81.837 188.094 82.1136 188.084C82.4 188.074 82.558 188.064 82.6272 188.064C82.6765 188.064 82.8543 188.074 83.1506 188.084C83.4469 188.104 83.8222 188.114 84.2864 188.124C84.7407 188.143 85.2444 188.153 85.7778 188.173C86.321 188.192 86.8642 188.192 87.3975 188.192C87.6148 188.192 87.763 188.163 87.8617 188.104C87.9506 188.045 88 187.966 88 187.887C88 187.809 87.9802 187.749 87.921 187.681C87.8815 187.621 87.8025 187.592 87.6938 187.582C87.5654 187.582 87.4074 187.582 87.2099 187.562C87.0123 187.543 86.8049 187.523 86.5778 187.503C86.3506 187.474 86.1531 187.444 85.9556 187.415C85.6198 187.356 85.3531 187.247 85.1654 187.08C84.9778 186.903 84.8494 186.686 84.7605 186.421C84.6716 186.155 84.6123 185.84 84.5728 185.476C84.5235 184.983 84.4839 184.363 84.4543 183.586C84.4346 182.808 84.4148 181.902 84.4049 180.879C84.4049 179.855 84.4049 178.742 84.4049 177.522V174.588C84.4049 174.451 84.4247 174.372 84.4543 174.313C84.4839 174.264 84.5531 174.244 84.6617 174.244C84.8 174.244 85.0667 174.244 85.4518 174.234H86.8148C87.3284 174.234 87.8518 174.234 88.3852 174.244C88.9185 174.244 89.3926 174.264 89.8272 174.273C90.2518 174.283 90.558 174.293 90.7654 174.323C91.3481 174.421 91.7926 174.569 92.1185 174.775C92.4346 174.982 92.6321 175.218 92.721 175.484C92.8099 175.711 92.8691 175.927 92.8988 176.173C92.9383 176.409 92.9679 176.626 92.9778 176.823C92.9778 176.911 92.9975 176.99 93.0272 177.059C93.0667 177.128 93.1259 177.158 93.2346 177.167C93.363 177.167 93.4519 177.079 93.5111 176.931C93.5605 176.774 93.5802 176.616 93.5802 176.429C93.5802 176.35 93.5802 176.222 93.5901 176.045C93.5901 175.848 93.5901 175.632 93.6198 175.386C93.6198 175.13 93.6395 174.884 93.6593 174.628C93.6691 174.382 93.6988 174.165 93.7185 173.978C93.7679 173.378 93.837 172.915 93.9259 172.59C94.0049 172.265 94.0543 172.059 94.0642 171.95C94.0642 171.862 94.0444 171.783 94.0148 171.734C93.9852 171.675 93.9259 171.645 93.8469 171.645C93.7778 171.645 93.7086 171.684 93.6198 171.763C93.5407 171.832 93.4519 171.931 93.3728 172.029C93.2049 172.236 92.9778 172.393 92.6914 172.482C92.4049 172.58 92.0494 172.639 91.5951 172.669C91.3383 172.698 91.0617 172.708 90.7753 172.708C90.4889 172.718 90.1827 172.718 89.8568 172.718L84.6617 172.757C84.5333 172.757 84.4642 172.728 84.4346 172.669C84.4148 172.61 84.3951 172.521 84.4049 172.413V162.392C84.4049 162.244 84.4247 162.146 84.4839 162.087C84.5235 162.028 84.6025 161.998 84.7111 162.008L90.9531 162.097C91.4469 162.097 91.8716 162.156 92.237 162.264C92.6025 162.382 92.8889 162.52 93.116 162.687C93.3432 162.845 93.4815 163.012 93.5605 163.179C93.6691 163.426 93.758 163.681 93.8173 163.937C93.8765 164.193 93.9062 164.4 93.9062 164.567C93.9062 164.695 93.9358 164.804 93.9951 164.873C94.0543 164.951 94.1235 164.991 94.2123 164.991C94.3012 164.991 94.3704 164.941 94.4395 164.863C94.4988 164.784 94.5383 164.695 94.558 164.607C94.5778 164.489 94.6074 164.321 94.6173 164.095C94.637 163.859 94.6469 163.632 94.6568 163.357C94.6765 163.101 94.6864 162.864 94.6963 162.648C94.716 162.431 94.7259 162.274 94.7358 162.185C94.8049 161.673 94.8741 161.289 94.9432 161.024C95.0025 160.768 95.0321 160.581 95.042 160.453C95.042 160.364 95.0222 160.276 94.9827 160.216C94.9333 160.138 94.8741 160.108 94.7852 160.108C94.7259 160.118 94.6469 160.148 94.558 160.197C94.4691 160.246 94.3704 160.295 94.2617 160.325C94.0839 160.374 93.8469 160.423 93.5407 160.443C93.2346 160.463 92.9086 160.472 92.5333 160.502C92.3852 160.502 92.0494 160.512 91.5555 160.512C91.0617 160.512 90.4593 160.522 89.758 160.522C89.0568 160.522 88.3259 160.512 87.5555 160.512C86.7852 160.512 86.0642 160.512 85.363 160.502H82.6667C82.6074 160.502 82.4296 160.492 82.1432 160.482C81.8568 160.482 81.5012 160.472 81.0765 160.453C80.6518 160.453 80.1975 160.433 79.7235 160.423C79.2494 160.423 78.7852 160.404 78.3407 160.404C78.1235 160.404 77.9753 160.423 77.8765 160.472C77.7778 160.522 77.7383 160.591 77.7383 160.709C77.7383 160.787 77.7778 160.846 77.837 160.906C77.8963 160.965 77.9654 160.994 78.0346 161.004C78.1531 161.004 78.2914 161.004 78.4593 161.024C78.6173 161.024 78.7852 161.043 78.9333 161.053C79.0914 161.073 79.2296 161.083 79.3284 161.102C79.7432 161.152 80.0593 161.27 80.2765 161.427C80.4938 161.585 80.642 161.811 80.721 162.087C80.8099 162.362 80.8691 162.717 80.8889 163.13C80.9086 163.357 80.9185 163.603 80.9383 163.849C80.9383 164.105 80.958 164.41 80.958 164.764C80.958 165.129 80.9679 165.581 80.9679 166.113C80.9778 166.654 80.9778 167.324 80.9778 168.121V177.492L80.9284 177.522ZM52.2272 173.25C52.237 171.261 52.5136 169.509 53.037 168.013C53.5802 166.516 54.3407 165.276 55.3086 164.272C56.2963 163.278 57.442 162.53 58.7852 162.028C60.1185 161.526 61.5802 161.289 63.1802 161.289C64.3951 161.289 65.5605 161.467 66.6765 161.831C67.8025 162.205 68.8395 162.746 69.7975 163.475C70.7457 164.203 71.5852 165.099 72.2963 166.182C73.0074 167.265 73.5704 168.515 73.9654 169.942C74.3605 171.36 74.5679 172.954 74.5778 174.716C74.5778 176.478 74.4 178.024 74.0444 179.323C73.7086 180.632 73.2444 181.745 72.6617 182.66C72.079 183.576 71.4272 184.324 70.7062 184.914C69.9852 185.495 69.2346 185.958 68.4642 186.283C67.6938 186.608 66.9531 186.834 66.2222 186.962C65.5012 187.09 64.8494 187.149 64.2765 187.139C62.5383 187.129 60.9481 186.814 59.4864 186.165C58.0247 185.525 56.7506 184.609 55.6642 183.399C54.5778 182.178 53.7481 180.731 53.1358 179.018C52.5333 177.305 52.237 175.386 52.2272 173.24V173.25ZM213.383 130.213C213.689 130.547 214.153 131.059 214.805 131.739C215.447 132.418 216.217 133.235 217.106 134.17C218.005 135.105 218.973 136.129 220.02 137.221C221.067 138.324 222.153 139.446 223.269 140.618C224.079 141.464 224.928 142.33 225.807 143.226C226.686 144.112 227.546 144.988 228.385 145.825C229.225 146.662 229.995 147.429 230.686 148.109C231.378 148.798 231.951 149.359 232.385 149.782C232.83 150.215 233.096 150.461 233.175 150.55C233.877 151.19 234.41 151.672 234.785 151.997C235.16 152.322 235.437 152.538 235.625 152.647C235.812 152.755 235.96 152.804 236.079 152.794C236.148 152.804 236.198 152.775 236.237 152.725C236.267 152.676 236.306 152.558 236.326 152.391C236.346 152.223 236.365 151.958 236.365 151.603C236.375 151.249 236.375 150.766 236.375 150.166L236.464 128.667C236.464 127.939 236.484 127.358 236.543 126.915C236.593 126.482 236.711 126.147 236.909 125.921C237.096 125.694 237.402 125.547 237.807 125.468C238.025 125.419 238.212 125.399 238.37 125.389C238.519 125.379 238.637 125.379 238.726 125.379C238.854 125.379 238.973 125.33 239.042 125.261C239.111 125.183 239.16 125.114 239.16 125.035C239.16 124.927 239.091 124.868 238.963 124.828C238.835 124.789 238.677 124.779 238.469 124.779C237.679 124.779 236.998 124.799 236.425 124.828C235.842 124.858 235.447 124.868 235.22 124.868C235.062 124.868 234.785 124.858 234.38 124.848C233.965 124.828 233.491 124.818 232.948 124.799C232.395 124.789 231.832 124.779 231.24 124.779C231.022 124.779 230.844 124.799 230.716 124.828C230.578 124.868 230.519 124.927 230.509 125.035C230.509 125.114 230.528 125.183 230.568 125.261C230.607 125.34 230.686 125.379 230.815 125.379C230.923 125.379 231.072 125.389 231.279 125.399C231.486 125.419 231.714 125.429 231.96 125.458C232.207 125.478 232.454 125.507 232.681 125.557C233.077 125.626 233.363 125.773 233.56 126.009C233.758 126.236 233.906 126.6 233.985 127.073C234.064 127.545 234.104 128.175 234.114 128.963L234.509 147.351C234.212 147.036 233.748 146.553 233.136 145.914C232.523 145.264 231.802 144.506 230.973 143.63C230.153 142.754 229.264 141.828 228.326 140.844C227.388 139.869 226.439 138.885 225.491 137.911C224.306 136.69 223.151 135.509 222.035 134.347C220.919 133.186 219.872 132.093 218.884 131.069C217.896 130.036 217.027 129.13 216.247 128.323C215.477 127.516 214.854 126.856 214.36 126.344C213.877 125.832 213.58 125.517 213.442 125.389C213.314 125.261 213.156 125.104 212.978 124.927C212.81 124.749 212.632 124.602 212.464 124.474C212.286 124.346 212.118 124.267 211.97 124.267C211.872 124.257 211.783 124.316 211.704 124.415C211.625 124.523 211.565 124.72 211.516 124.986C211.477 125.261 211.457 125.645 211.457 126.128V147.144C211.457 148.256 211.437 149.113 211.398 149.753C211.348 150.392 211.24 150.855 211.081 151.16C210.923 151.456 210.686 151.643 210.37 151.721C210.084 151.81 209.788 151.869 209.501 151.899C209.205 151.928 208.978 151.938 208.82 151.938C208.731 151.938 208.662 151.967 208.602 152.026C208.543 152.086 208.514 152.154 208.514 152.243C208.514 152.361 208.563 152.45 208.672 152.479C208.77 152.529 208.919 152.538 209.116 152.538C209.699 152.538 210.252 152.519 210.756 152.499C211.269 152.469 211.714 152.46 212.069 152.44C212.435 152.42 212.672 152.401 212.79 152.401C212.978 152.41 213.422 152.43 214.123 152.469C214.825 152.499 215.723 152.519 216.81 152.529C217.027 152.529 217.205 152.509 217.323 152.45C217.442 152.41 217.501 152.332 217.501 152.223C217.501 152.135 217.472 152.066 217.412 152.007C217.353 151.948 217.284 151.918 217.195 151.918C217.067 151.918 216.909 151.918 216.701 151.899C216.494 151.879 216.267 151.859 216.01 151.83C215.763 151.8 215.526 151.751 215.289 151.692C214.933 151.613 214.667 151.446 214.469 151.17C214.252 150.885 214.104 150.461 214.005 149.881C213.906 149.3 213.847 148.512 213.817 147.508L213.383 130.203V130.213ZM178.183 138.59C178.183 139.692 178.301 140.814 178.568 141.946C178.815 143.088 179.2 144.191 179.723 145.264C180.247 146.337 180.909 147.341 181.719 148.266C182.519 149.201 183.486 150.028 184.583 150.727C185.689 151.436 186.943 151.987 188.356 152.391C189.768 152.794 191.348 153.001 193.086 153.001C194.923 153.001 196.632 152.735 198.202 152.233C199.763 151.721 201.185 151.013 202.43 150.097C203.684 149.182 204.751 148.099 205.639 146.839C206.519 145.599 207.2 144.22 207.664 142.734C208.128 141.248 208.375 139.682 208.375 138.029C208.356 135.883 207.98 133.963 207.23 132.28C206.469 130.577 205.422 129.13 204.059 127.939C202.696 126.748 201.106 125.832 199.279 125.212C197.452 124.582 195.457 124.267 193.304 124.267C191.546 124.267 189.965 124.494 188.533 124.917C187.111 125.35 185.827 125.931 184.711 126.669C183.595 127.417 182.627 128.264 181.798 129.219C180.978 130.173 180.306 131.177 179.773 132.26C179.24 133.333 178.844 134.406 178.578 135.489C178.321 136.572 178.193 137.615 178.193 138.609L178.183 138.59ZM182.123 137.596C182.123 135.597 182.41 133.855 182.943 132.359C183.486 130.862 184.237 129.612 185.215 128.618C186.202 127.624 187.358 126.876 188.691 126.374C190.025 125.872 191.496 125.635 193.096 125.635C194.311 125.635 195.467 125.813 196.583 126.177C197.709 126.551 198.746 127.092 199.704 127.821C200.652 128.539 201.491 129.445 202.202 130.528C202.923 131.611 203.477 132.861 203.872 134.278C204.267 135.706 204.474 137.29 204.474 139.052C204.474 140.814 204.296 142.36 203.951 143.659C203.615 144.969 203.151 146.081 202.568 146.996C201.995 147.912 201.333 148.66 200.612 149.251C199.891 149.831 199.141 150.294 198.36 150.619C197.59 150.944 196.84 151.17 196.119 151.298C195.398 151.426 194.746 151.485 194.163 151.475C192.425 151.475 190.835 151.141 189.383 150.501C187.921 149.861 186.647 148.945 185.56 147.735C184.474 146.514 183.644 145.067 183.032 143.354C182.43 141.651 182.133 139.722 182.123 137.576V137.596ZM174.983 135.4V130.488C174.993 129.947 174.993 129.494 174.993 129.14C174.993 128.776 174.993 128.48 175.002 128.214C175.002 127.968 175.012 127.712 175.022 127.496C175.042 127.063 175.101 126.708 175.18 126.433C175.249 126.167 175.388 125.96 175.565 125.793C175.753 125.645 176.02 125.527 176.356 125.468C176.563 125.419 176.751 125.399 176.899 125.389C177.047 125.379 177.185 125.379 177.314 125.379C177.383 125.379 177.452 125.34 177.521 125.281C177.58 125.222 177.61 125.153 177.62 125.084C177.62 124.976 177.57 124.897 177.472 124.858C177.383 124.809 177.225 124.779 177.007 124.779C176.701 124.779 176.346 124.789 175.941 124.799C175.536 124.799 175.131 124.818 174.726 124.828C174.331 124.828 173.985 124.848 173.699 124.858C173.422 124.858 173.244 124.877 173.195 124.877C173.126 124.877 172.968 124.868 172.681 124.858C172.395 124.858 172.059 124.838 171.664 124.828C171.269 124.809 170.864 124.799 170.449 124.799C170.044 124.799 169.669 124.779 169.353 124.779C169.136 124.779 168.988 124.799 168.889 124.858C168.79 124.897 168.741 124.976 168.741 125.084C168.741 125.153 168.77 125.222 168.83 125.281C168.889 125.34 168.958 125.379 169.047 125.379C169.185 125.379 169.363 125.389 169.57 125.409C169.788 125.429 169.995 125.468 170.222 125.507C170.627 125.596 170.923 125.783 171.101 126.098C171.289 126.403 171.398 126.876 171.437 127.496C171.447 127.722 171.467 127.968 171.486 128.214C171.486 128.47 171.506 128.776 171.506 129.14C171.506 129.504 171.526 129.947 171.526 130.488C171.526 131.02 171.526 131.699 171.526 132.496V141.868C171.526 143.049 171.526 144.151 171.506 145.156C171.496 146.169 171.467 147.065 171.437 147.863C171.398 148.65 171.358 149.29 171.299 149.812C171.259 150.176 171.21 150.481 171.141 150.757C171.072 151.022 170.983 151.249 170.854 151.416C170.726 151.584 170.548 151.692 170.301 151.751C170.114 151.79 169.926 151.839 169.719 151.869C169.511 151.899 169.314 151.918 169.136 151.918C169.027 151.918 168.948 151.958 168.909 152.017C168.859 152.076 168.839 152.145 168.839 152.214C168.839 152.322 168.889 152.401 168.998 152.44C169.096 152.489 169.244 152.519 169.442 152.519C169.748 152.519 170.094 152.509 170.499 152.499C170.894 152.479 171.299 152.469 171.694 152.46C172.079 152.44 172.425 152.43 172.701 152.42C172.988 152.401 173.146 152.391 173.215 152.391C173.264 152.391 173.442 152.401 173.738 152.42C174.035 152.43 174.41 152.45 174.874 152.46C175.328 152.469 175.832 152.489 176.365 152.499C176.909 152.509 177.452 152.519 177.985 152.519C178.202 152.519 178.351 152.489 178.449 152.43C178.548 152.371 178.598 152.302 178.598 152.214C178.598 152.135 178.578 152.076 178.519 152.017C178.479 151.948 178.4 151.918 178.291 151.918C178.173 151.918 178.005 151.918 177.807 151.899C177.6 151.879 177.402 151.859 177.175 151.839C176.948 151.81 176.751 151.78 176.553 151.751C176.188 151.692 175.901 151.584 175.723 151.416C175.536 151.249 175.407 151.032 175.338 150.757C175.259 150.481 175.21 150.176 175.17 149.812C175.111 149.3 175.072 148.65 175.052 147.863C175.032 147.075 175.012 146.179 175.012 145.156C175.002 144.142 175.002 143.049 175.002 141.868V135.391L174.983 135.4ZM157.106 126.452L161.867 126.541C162.775 126.561 163.526 126.62 164.109 126.738C164.691 126.846 165.146 126.984 165.481 127.171C165.817 127.348 166.064 127.565 166.202 127.801C166.351 128.037 166.43 128.303 166.459 128.579L166.499 128.963C166.519 129.219 166.558 129.386 166.598 129.484C166.647 129.583 166.706 129.622 166.795 129.612C166.884 129.612 166.973 129.573 167.032 129.494C167.101 129.406 167.141 129.297 167.141 129.14C167.141 129.022 167.141 128.795 167.16 128.461C167.17 128.126 167.19 127.742 167.2 127.309C167.22 126.866 167.23 126.443 167.24 126.019C167.259 125.606 167.259 125.242 167.259 124.956C167.269 124.838 167.259 124.749 167.24 124.661C167.23 124.572 167.17 124.533 167.091 124.523C167.002 124.523 166.874 124.543 166.696 124.572C166.528 124.612 166.291 124.651 166.015 124.69C165.719 124.73 165.343 124.779 164.899 124.809C164.444 124.848 163.921 124.868 163.289 124.868H148.909C148.751 124.868 148.514 124.858 148.178 124.848C147.852 124.828 147.486 124.818 147.081 124.789C146.677 124.759 146.291 124.73 145.916 124.69C145.412 124.612 145.027 124.523 144.78 124.425C144.533 124.326 144.346 124.257 144.227 124.257C144.188 124.257 144.138 124.306 144.089 124.385C144.04 124.474 144 124.562 143.951 124.671C143.901 124.779 143.872 124.858 143.842 124.946C143.842 125.005 143.802 125.173 143.743 125.439C143.684 125.694 143.615 126.009 143.536 126.364C143.457 126.718 143.378 127.082 143.309 127.437C143.23 127.801 143.16 128.116 143.111 128.392C143.062 128.648 143.032 128.835 143.032 128.923C143.032 129.031 143.072 129.1 143.141 129.159C143.2 129.209 143.249 129.228 143.299 129.228C143.388 129.228 143.467 129.209 143.526 129.169C143.595 129.12 143.644 129.022 143.684 128.874C143.743 128.756 143.802 128.618 143.872 128.441C143.951 128.274 144.079 128.027 144.296 127.712C144.474 127.427 144.711 127.201 145.017 127.043C145.314 126.876 145.719 126.748 146.212 126.679C146.716 126.6 147.358 126.561 148.148 126.551L153.649 126.462V141.878C153.649 143.059 153.649 144.161 153.639 145.165C153.639 146.179 153.62 147.075 153.6 147.872C153.58 148.66 153.541 149.3 153.481 149.821C153.422 150.363 153.323 150.806 153.165 151.15C153.007 151.495 152.741 151.711 152.356 151.8C152.188 151.849 152 151.889 151.793 151.928C151.595 151.948 151.407 151.967 151.23 151.967C151.121 151.967 151.042 151.997 150.993 152.046C150.943 152.095 150.923 152.164 150.923 152.233C150.923 152.341 150.963 152.42 151.062 152.46C151.16 152.509 151.309 152.538 151.526 152.538C151.822 152.538 152.178 152.538 152.593 152.519C153.017 152.499 153.432 152.489 153.857 152.479C154.281 152.46 154.637 152.45 154.943 152.44C155.23 152.42 155.417 152.41 155.467 152.41C155.526 152.41 155.704 152.42 156 152.44C156.306 152.45 156.681 152.469 157.126 152.479C157.58 152.489 158.074 152.509 158.607 152.519C159.131 152.538 159.664 152.538 160.188 152.538C160.405 152.538 160.553 152.509 160.652 152.45C160.741 152.391 160.79 152.322 160.79 152.233C160.79 152.154 160.77 152.095 160.741 152.036C160.701 151.967 160.612 151.938 160.484 151.938C160.365 151.938 160.198 151.938 159.99 151.918C159.793 151.899 159.575 151.879 159.348 151.859C159.121 151.83 158.923 151.8 158.746 151.771C158.36 151.711 158.074 151.603 157.877 151.436C157.679 151.269 157.541 151.052 157.452 150.776C157.363 150.501 157.314 150.196 157.274 149.831C157.215 149.319 157.185 148.67 157.156 147.882C157.126 147.095 157.116 146.199 157.106 145.175C157.106 144.161 157.106 143.069 157.106 141.887V126.472V126.452ZM133.422 153.001C134.262 153.001 135.101 152.971 135.951 152.922C136.81 152.873 137.62 152.784 138.38 152.666C139.141 152.548 139.783 152.391 140.316 152.184C140.533 152.105 140.691 152.017 140.81 151.938C140.919 151.859 141.017 151.761 141.077 151.633C141.136 151.505 141.205 151.318 141.274 151.101C141.353 150.845 141.432 150.53 141.521 150.156C141.61 149.782 141.689 149.388 141.768 148.975C141.847 148.561 141.916 148.168 141.975 147.804C142.044 147.429 142.094 147.114 142.133 146.868C142.173 146.612 142.193 146.455 142.193 146.396C142.193 146.268 142.153 146.15 142.084 146.041C142.015 145.943 141.936 145.884 141.847 145.884C141.719 145.884 141.639 145.923 141.59 146.002C141.541 146.081 141.491 146.209 141.462 146.396C141.422 146.632 141.333 146.947 141.215 147.321C141.086 147.695 140.919 148.069 140.711 148.463C140.504 148.847 140.267 149.191 139.99 149.467C139.496 149.959 138.943 150.333 138.321 150.589C137.719 150.835 137.027 151.003 136.267 151.091C135.506 151.17 134.657 151.209 133.709 151.2C132.079 151.2 130.558 150.954 129.156 150.491C127.753 150.028 126.479 149.379 125.353 148.542C124.227 147.705 123.269 146.731 122.469 145.618C121.669 144.496 121.057 143.285 120.622 141.976C120.198 140.667 119.99 139.308 119.98 137.891C119.98 136.651 120.059 135.459 120.237 134.327C120.425 133.195 120.76 132.122 121.264 131.118C121.758 130.104 122.469 129.159 123.398 128.303C123.842 127.87 124.415 127.466 125.136 127.092C125.847 126.699 126.765 126.384 127.872 126.137C128.988 125.891 130.351 125.763 131.97 125.754C133.106 125.754 134.153 125.842 135.121 126.019C136.089 126.196 136.938 126.443 137.669 126.748C138.41 127.063 139.002 127.397 139.467 127.771C139.802 128.027 140.089 128.362 140.326 128.756C140.563 129.14 140.751 129.573 140.879 130.036C141.007 130.498 141.067 130.971 141.067 131.443C141.067 131.699 141.086 131.896 141.126 132.034C141.165 132.152 141.244 132.221 141.373 132.221C141.481 132.221 141.58 132.162 141.659 132.044C141.738 131.926 141.788 131.719 141.817 131.443C141.817 131.315 141.837 131.099 141.847 130.813C141.847 130.528 141.847 130.193 141.867 129.829C141.867 129.465 141.877 129.091 141.877 128.707C141.886 128.333 141.896 127.998 141.906 127.693C141.936 127.25 141.965 126.895 141.995 126.63C142.015 126.364 142.035 126.147 142.054 126C142.074 125.842 142.074 125.714 142.074 125.626C142.084 125.507 142.044 125.429 141.985 125.36C141.916 125.281 141.788 125.242 141.6 125.242C140.978 125.212 140.346 125.143 139.714 125.045C139.072 124.936 138.4 124.818 137.699 124.681C137.067 124.582 136.425 124.503 135.773 124.434C135.111 124.366 134.469 124.316 133.857 124.287C133.235 124.257 132.672 124.247 132.158 124.247C130.222 124.247 128.523 124.434 127.062 124.769C125.6 125.114 124.336 125.586 123.279 126.167C122.222 126.758 121.314 127.427 120.553 128.175C119.714 129.002 119.012 129.868 118.459 130.774C117.906 131.679 117.462 132.585 117.146 133.491C116.82 134.386 116.602 135.233 116.454 136.04C116.326 136.847 116.257 137.556 116.257 138.186C116.237 139.358 116.375 140.578 116.632 141.848C116.889 143.118 117.363 144.358 118.035 145.599C118.716 146.829 119.664 147.981 120.889 149.054C121.877 149.92 122.983 150.648 124.207 151.229C125.432 151.81 126.805 152.243 128.326 152.538C129.847 152.834 131.565 152.981 133.462 152.981L133.422 153.001ZM101.274 141.868C101.274 143.049 101.274 144.151 101.274 145.156C101.274 146.169 101.244 147.065 101.215 147.863C101.185 148.65 101.136 149.29 101.067 149.812C101.017 150.176 100.958 150.481 100.899 150.766C100.84 151.042 100.751 151.269 100.622 151.426C100.504 151.603 100.316 151.711 100.079 151.751C99.9012 151.78 99.7037 151.81 99.4963 151.849C99.2889 151.889 99.0914 151.918 98.9136 151.928C98.8049 151.928 98.7259 151.967 98.6864 152.026C98.637 152.086 98.6074 152.154 98.6074 152.223C98.6074 152.332 98.6568 152.41 98.7654 152.45C98.8642 152.499 99.0222 152.529 99.2099 152.529C99.5259 152.529 99.8716 152.529 100.267 152.499C100.662 152.489 101.047 152.469 101.422 152.45C101.857 152.43 102.212 152.41 102.528 152.41C102.835 152.401 103.022 152.401 103.072 152.401C103.358 152.401 103.743 152.401 104.267 152.41C104.78 152.43 105.432 152.45 106.232 152.489C107.012 152.509 107.96 152.538 109.067 152.568C110.173 152.597 111.437 152.617 112.869 152.617C113.353 152.627 113.738 152.617 114.015 152.578C114.301 152.548 114.509 152.469 114.647 152.332C114.795 152.194 114.904 151.967 114.983 151.662C115.042 151.456 115.101 151.17 115.16 150.816C115.22 150.451 115.269 150.087 115.328 149.694C115.388 149.3 115.427 148.965 115.457 148.67C115.496 148.374 115.506 148.187 115.506 148.109C115.506 147.971 115.486 147.843 115.457 147.725C115.417 147.616 115.358 147.557 115.249 147.548C115.141 147.548 115.062 147.587 115.002 147.666C114.943 147.754 114.904 147.902 114.854 148.109C114.775 148.591 114.667 149.004 114.528 149.329C114.38 149.654 114.193 149.92 113.965 150.136C113.728 150.343 113.452 150.52 113.116 150.658C112.78 150.786 112.375 150.875 111.911 150.924C111.447 150.983 110.983 151.013 110.519 151.022C110.044 151.042 109.639 151.042 109.304 151.042C108.365 151.042 107.605 151.003 107.012 150.924C106.42 150.845 105.975 150.698 105.649 150.491C105.323 150.284 105.096 149.989 104.968 149.595C104.84 149.201 104.76 148.709 104.751 148.099C104.751 147.941 104.741 147.676 104.741 147.292C104.731 146.908 104.731 146.455 104.731 145.943C104.741 145.431 104.741 144.909 104.741 144.378C104.741 143.846 104.741 143.354 104.741 142.901C104.741 142.458 104.741 142.104 104.741 141.848V138.777C104.741 138.708 104.751 138.649 104.79 138.6C104.83 138.55 104.889 138.521 104.998 138.521C105.136 138.521 105.393 138.521 105.758 138.521C106.114 138.521 106.538 138.521 107.012 138.541C107.496 138.541 107.98 138.56 108.474 138.57C108.968 138.59 109.422 138.6 109.827 138.619C110.242 138.639 110.548 138.659 110.765 138.698C111.249 138.747 111.635 138.836 111.901 138.944C112.168 139.052 112.365 139.18 112.484 139.328C112.602 139.476 112.691 139.643 112.721 139.81C112.81 140.047 112.859 140.263 112.869 140.47C112.889 140.657 112.899 140.844 112.889 141.021C112.889 141.129 112.909 141.208 112.948 141.267C112.988 141.336 113.057 141.366 113.146 141.366C113.274 141.366 113.363 141.277 113.422 141.129C113.472 140.992 113.491 140.824 113.491 140.677C113.491 140.578 113.491 140.381 113.521 140.106C113.531 139.83 113.551 139.525 113.57 139.19C113.6 138.846 113.63 138.55 113.659 138.304C113.709 137.704 113.768 137.241 113.847 136.916C113.926 136.591 113.956 136.385 113.965 136.276C113.965 136.168 113.946 136.089 113.906 136.05C113.867 136.001 113.817 135.981 113.748 135.981C113.679 135.981 113.6 136.03 113.521 136.109C113.422 136.198 113.314 136.306 113.185 136.444C112.998 136.631 112.751 136.749 112.454 136.818C112.158 136.867 111.783 136.926 111.328 136.956C111.141 136.975 110.835 136.985 110.38 136.995C109.926 137.005 109.422 137.025 108.849 137.025C108.286 137.025 107.714 137.034 107.16 137.034C106.598 137.044 106.123 137.044 105.728 137.044H104.958C104.859 137.044 104.79 137.005 104.77 136.946C104.751 136.877 104.731 136.788 104.741 136.651V126.689C104.741 126.551 104.751 126.452 104.78 126.393C104.81 126.324 104.869 126.305 104.948 126.305H105.63C105.985 126.305 106.4 126.315 106.884 126.324C107.378 126.324 107.862 126.334 108.356 126.344C108.849 126.354 109.284 126.364 109.669 126.374C110.044 126.393 110.311 126.403 110.449 126.423C111.131 126.511 111.654 126.6 112.02 126.699C112.385 126.797 112.642 126.915 112.81 127.053C112.968 127.181 113.096 127.358 113.165 127.555C113.254 127.771 113.314 128.008 113.343 128.264C113.373 128.51 113.383 128.697 113.383 128.844C113.383 129.002 113.402 129.12 113.462 129.199C113.501 129.278 113.58 129.317 113.689 129.317C113.778 129.317 113.847 129.268 113.916 129.189C113.975 129.11 114.015 129.022 114.035 128.933C114.054 128.815 114.074 128.648 114.104 128.421C114.123 128.185 114.153 127.959 114.163 127.683C114.183 127.427 114.202 127.191 114.212 126.974C114.242 126.758 114.252 126.61 114.262 126.511C114.311 126 114.38 125.616 114.449 125.36C114.519 125.104 114.558 124.917 114.568 124.789C114.568 124.69 114.558 124.612 114.538 124.553C114.509 124.474 114.459 124.444 114.4 124.444C114.311 124.444 114.222 124.474 114.143 124.523C114.054 124.562 113.965 124.592 113.877 124.621C113.728 124.641 113.491 124.681 113.175 124.73C112.869 124.769 112.514 124.809 112.148 124.838C111.99 124.838 111.674 124.848 111.2 124.848C110.726 124.848 110.133 124.858 109.472 124.858C108.81 124.858 108.109 124.848 107.388 124.848C106.667 124.848 105.975 124.848 105.343 124.838H103.062C102.993 124.838 102.825 124.828 102.528 124.818C102.222 124.818 101.857 124.799 101.422 124.789C100.978 124.769 100.523 124.759 100.03 124.759C99.5358 124.759 99.0815 124.74 98.637 124.74C98.4198 124.74 98.2716 124.759 98.1728 124.818C98.0741 124.858 98.0247 124.936 98.0247 125.045C98.0247 125.124 98.0642 125.183 98.1235 125.242C98.1926 125.311 98.2518 125.34 98.321 125.34C98.4395 125.34 98.5778 125.34 98.7457 125.36C98.9037 125.36 99.0716 125.379 99.2197 125.389C99.3778 125.409 99.516 125.419 99.6148 125.439C100.03 125.488 100.346 125.606 100.553 125.763C100.77 125.921 100.928 126.147 101.007 126.423C101.096 126.699 101.146 127.053 101.175 127.466C101.195 127.693 101.205 127.939 101.215 128.185C101.215 128.441 101.235 128.746 101.235 129.11C101.235 129.474 101.254 129.917 101.254 130.459C101.254 130.99 101.254 131.67 101.254 132.467V141.838L101.274 141.868ZM87.1012 126.452L91.8617 126.541C92.7605 126.561 93.5111 126.62 94.1037 126.738C94.6864 126.846 95.1407 126.984 95.4765 127.171C95.8123 127.348 96.0494 127.565 96.1975 127.801C96.3457 128.037 96.4346 128.303 96.4543 128.579L96.4938 128.963C96.5136 129.219 96.5531 129.386 96.5926 129.484C96.642 129.583 96.7111 129.622 96.7901 129.612C96.8889 129.612 96.9679 129.573 97.0272 129.494C97.1062 129.406 97.1358 129.297 97.1358 129.14C97.1358 129.022 97.1358 128.795 97.1556 128.461C97.1654 128.126 97.1852 127.742 97.2049 127.309C97.2148 126.866 97.2346 126.443 97.2444 126.019C97.2543 125.606 97.2642 125.242 97.2642 124.956C97.2642 124.838 97.2642 124.749 97.2444 124.661C97.2247 124.572 97.1753 124.533 97.0864 124.523C96.9975 124.523 96.8691 124.543 96.6914 124.572C96.5136 124.612 96.2864 124.651 96 124.69C95.7037 124.73 95.3284 124.779 94.8839 124.809C94.4296 124.848 93.8963 124.868 93.2741 124.868H78.8938C78.7457 124.868 78.4988 124.858 78.1728 124.848C77.8469 124.828 77.4716 124.818 77.0667 124.789C76.6617 124.759 76.2765 124.73 75.9111 124.69C75.4074 124.612 75.0222 124.523 74.7753 124.425C74.5185 124.326 74.3407 124.257 74.2123 124.257C74.1728 124.257 74.1235 124.306 74.0741 124.385C74.0247 124.474 73.9852 124.562 73.9259 124.671C73.8864 124.779 73.8469 124.858 73.8173 124.946C73.8173 125.005 73.7778 125.173 73.7185 125.439C73.6593 125.694 73.5901 126.009 73.5111 126.364C73.4321 126.718 73.3531 127.082 73.2839 127.437C73.2049 127.801 73.1358 128.116 73.0765 128.392C73.0272 128.648 72.9975 128.835 72.9975 128.923C72.9975 129.031 73.037 129.1 73.0963 129.159C73.1556 129.209 73.2049 129.228 73.2543 129.228C73.3432 129.228 73.4222 129.209 73.4815 129.169C73.5506 129.12 73.6 129.022 73.6395 128.874C73.6988 128.756 73.758 128.618 73.8272 128.441C73.8963 128.274 74.0346 128.027 74.2518 127.712C74.4296 127.427 74.6667 127.201 74.9728 127.043C75.2691 126.876 75.6741 126.748 76.1679 126.679C76.6716 126.6 77.3136 126.561 78.1037 126.551L83.6049 126.462V141.878C83.6049 143.059 83.6049 144.161 83.6049 145.165C83.5951 146.179 83.5852 147.075 83.5555 147.872C83.5358 148.66 83.4864 149.3 83.437 149.821C83.3778 150.363 83.279 150.806 83.121 151.15C82.963 151.495 82.6963 151.711 82.3111 151.8C82.1333 151.849 81.9457 151.889 81.7481 151.928C81.5506 151.948 81.363 151.967 81.1852 151.967C81.0765 151.967 80.9975 151.997 80.958 152.046C80.9086 152.095 80.879 152.164 80.879 152.233C80.879 152.341 80.9284 152.42 81.0272 152.46C81.1259 152.509 81.2741 152.538 81.4914 152.538C81.7877 152.538 82.1432 152.538 82.558 152.519C82.9728 152.499 83.3975 152.489 83.8222 152.479C84.2469 152.46 84.6025 152.45 84.9086 152.44C85.2049 152.42 85.3827 152.41 85.4321 152.41C85.5012 152.41 85.6691 152.42 85.9654 152.44C86.2716 152.45 86.6469 152.469 87.0914 152.479C87.5457 152.489 88.0395 152.509 88.5728 152.519C89.0963 152.538 89.6197 152.538 90.1531 152.538C90.3704 152.538 90.5185 152.509 90.6173 152.45C90.7062 152.391 90.7555 152.322 90.7555 152.233C90.7555 152.154 90.7358 152.095 90.7062 152.036C90.6667 151.967 90.5877 151.938 90.4494 151.938C90.3309 151.938 90.1728 151.938 89.9654 151.918C89.7679 151.899 89.5506 151.879 89.3235 151.859C89.1062 151.83 88.8988 151.8 88.721 151.771C88.3358 151.711 88.0494 151.603 87.8518 151.436C87.6543 151.269 87.516 151.052 87.437 150.776C87.3481 150.501 87.2889 150.196 87.2593 149.831C87.2 149.319 87.1704 148.67 87.1407 147.882C87.121 147.095 87.1012 146.199 87.0914 145.175C87.0914 144.161 87.0914 143.069 87.0914 141.887V126.472L87.1012 126.452ZM44.4247 138.59C44.4247 139.692 44.5432 140.814 44.8099 141.946C45.0568 143.088 45.442 144.191 45.9753 145.264C46.4988 146.337 47.1605 147.341 47.9704 148.266C48.7704 149.201 49.7284 150.028 50.8247 150.727C51.9309 151.436 53.1852 151.987 54.5975 152.391C56.0099 152.794 57.5901 153.001 59.3284 153.001C61.1654 153.001 62.8741 152.735 64.4444 152.233C66.0049 151.721 67.4272 151.013 68.6716 150.097C69.9259 149.182 70.9926 148.099 71.8815 146.839C72.7605 145.599 73.442 144.22 73.9062 142.734C74.3704 141.248 74.6173 139.682 74.6173 138.029C74.6173 135.883 74.2222 133.963 73.4716 132.28C72.721 130.577 71.6642 129.13 70.3111 127.939C68.9482 126.748 67.358 125.832 65.5309 125.212C63.7037 124.582 61.7086 124.267 59.5556 124.267C57.7975 124.267 56.2074 124.494 54.7852 124.917C53.3531 125.35 52.079 125.931 50.9531 126.669C49.837 127.417 48.8691 128.264 48.0395 129.219C47.2296 130.173 46.5481 131.177 46.0148 132.26C45.4815 133.333 45.0864 134.406 44.8198 135.489C44.563 136.572 44.4346 137.615 44.4346 138.609L44.4247 138.59ZM48.3654 137.596C48.3654 135.597 48.6519 133.855 49.1753 132.359C49.7185 130.862 50.4691 129.612 51.4568 128.618C52.4346 127.624 53.5901 126.876 54.9235 126.374C56.2568 125.872 57.7284 125.635 59.3284 125.635C60.5432 125.635 61.6988 125.813 62.8148 126.177C63.9506 126.551 64.9778 127.092 65.9358 127.821C66.8839 128.539 67.7235 129.445 68.4444 130.528C69.1556 131.611 69.7185 132.861 70.1136 134.278C70.5086 135.706 70.716 137.29 70.716 139.052C70.716 140.814 70.5383 142.36 70.1926 143.659C69.8469 144.969 69.3926 146.081 68.8099 146.996C68.237 147.912 67.5753 148.66 66.8543 149.251C66.1333 149.831 65.3827 150.294 64.6025 150.619C63.8321 150.944 63.0815 151.17 62.3605 151.298C61.6395 151.426 60.9876 151.485 60.4148 151.475C58.6864 151.475 57.0864 151.141 55.6346 150.501C54.1728 149.861 52.8988 148.945 51.8123 147.735C50.7259 146.514 49.8864 145.067 49.284 143.354C48.6815 141.651 48.3753 139.722 48.3753 137.576L48.3654 137.596ZM25.037 141.878C25.037 143.059 25.037 144.161 25.0272 145.165C25.0272 146.179 24.9975 147.075 24.9679 147.872C24.9383 148.66 24.8889 149.3 24.8198 149.821C24.7704 150.186 24.7111 150.491 24.6518 150.766C24.5926 151.032 24.5037 151.259 24.3753 151.426C24.2568 151.593 24.0593 151.702 23.8321 151.761C23.6543 151.8 23.4568 151.849 23.2494 151.879C23.042 151.908 22.8444 151.928 22.6667 151.928C22.558 151.928 22.479 151.967 22.4395 152.026C22.3901 152.086 22.3704 152.154 22.3704 152.223C22.3704 152.332 22.4198 152.41 22.5284 152.45C22.6272 152.499 22.7852 152.529 22.9728 152.529C23.279 152.529 23.6346 152.519 24.0494 152.509C24.4741 152.489 24.8691 152.479 25.2839 152.469C25.6889 152.45 26.0247 152.44 26.3012 152.43C26.5778 152.41 26.716 152.401 26.7358 152.401C26.7852 152.401 26.963 152.41 27.2494 152.43C27.5358 152.44 27.9111 152.46 28.3556 152.469C28.8 152.479 29.2938 152.499 29.8272 152.509C30.3605 152.519 30.8839 152.529 31.4074 152.529C31.6247 152.529 31.7728 152.499 31.8815 152.44C31.9704 152.381 32.0197 152.312 32.0197 152.223C32.0197 152.145 32.0099 152.086 31.9704 152.026C31.9309 151.958 31.8518 151.928 31.7235 151.928C31.6049 151.928 31.437 151.928 31.2395 151.908C31.0518 151.889 30.8346 151.869 30.6173 151.849C30.4 151.82 30.2025 151.79 30.0247 151.761C29.6395 151.702 29.3432 151.593 29.1457 151.426C28.9383 151.259 28.7901 151.042 28.7012 150.766C28.6123 150.491 28.5531 150.186 28.5136 149.821C28.4543 149.31 28.4148 148.67 28.3951 147.882C28.3753 147.105 28.3556 146.209 28.3556 145.205C28.3556 144.201 28.3556 143.098 28.3556 141.917V141.051C28.3556 140.942 28.3753 140.864 28.4247 140.814C28.4642 140.765 28.5333 140.746 28.6222 140.746L33.4716 140.834C33.6 140.834 33.6988 140.844 33.7679 140.874C33.8272 140.903 33.9062 140.962 33.9951 141.051C34.2815 141.385 34.637 141.858 35.0716 142.439C35.516 143.019 35.9901 143.659 36.5136 144.348C37.0469 145.037 37.5704 145.717 38.1136 146.396C38.8247 147.321 39.4765 148.138 40.0593 148.827C40.642 149.536 41.1951 150.127 41.7185 150.629C42.2321 151.111 42.7753 151.505 43.3086 151.79C43.6148 151.958 43.9506 152.105 44.3062 152.214C44.6617 152.322 45.0864 152.401 45.5704 152.46C46.0642 152.509 46.6568 152.538 47.3778 152.538H49.758C50.1037 152.538 50.3309 152.519 50.4691 152.46C50.6074 152.42 50.6667 152.341 50.6667 152.233C50.6667 152.154 50.637 152.095 50.5679 152.036C50.5086 151.967 50.4198 151.938 50.321 151.938C50.2222 151.938 50.0543 151.938 49.837 151.918C49.6296 151.899 49.3432 151.869 48.9679 151.8C48.6519 151.771 48.2963 151.682 47.9012 151.544C47.4963 151.406 47.042 151.16 46.5185 150.806C45.9951 150.451 45.4025 149.94 44.721 149.251C43.6247 148.099 42.4099 146.711 41.0765 145.096C39.7531 143.482 38.3111 141.7 36.7506 139.741C37.9259 138.737 38.8543 137.773 39.5457 136.838C40.2272 135.893 40.7111 134.987 40.9975 134.071C41.2938 133.166 41.4321 132.27 41.4222 131.364C41.4222 130.725 41.3235 130.144 41.1457 129.602C40.9679 129.071 40.7407 128.579 40.4642 128.155C40.1778 127.732 39.8914 127.368 39.5951 127.063C39.2988 126.767 39.0222 126.531 38.7852 126.354C38.1136 125.901 37.3827 125.557 36.6025 125.32C35.8123 125.084 34.9926 124.936 34.163 124.858C33.3235 124.779 32.5037 124.74 31.6938 124.749C31.4568 124.749 31.1506 124.749 30.7753 124.759C30.4198 124.759 30.0247 124.769 29.6198 124.779C29.2148 124.779 28.8198 124.799 28.4346 124.809C28.0494 124.818 27.7235 124.828 27.4667 124.828C27.1901 124.838 27.0222 124.838 26.9333 124.838C26.8642 124.838 26.6864 124.828 26.3901 124.818C26.0839 124.818 25.7086 124.799 25.2543 124.789C24.8 124.769 24.3259 124.759 23.842 124.759C23.3383 124.759 22.8741 124.74 22.4296 124.74C22.2123 124.74 22.0642 124.759 21.9654 124.818C21.8667 124.858 21.8173 124.936 21.8173 125.045C21.8272 125.124 21.8568 125.183 21.916 125.242C21.9753 125.311 22.0444 125.34 22.1235 125.34C22.242 125.34 22.3802 125.34 22.5481 125.36C22.7062 125.36 22.8741 125.379 23.0321 125.389C23.1901 125.409 23.3284 125.419 23.4272 125.439C23.842 125.488 24.158 125.606 24.3753 125.763C24.5926 125.921 24.7407 126.147 24.8198 126.423C24.9086 126.699 24.9679 127.053 24.9877 127.466C25.0074 127.693 25.0173 127.939 25.0272 128.185C25.0272 128.441 25.0568 128.746 25.0568 129.11C25.0568 129.474 25.0667 129.917 25.0667 130.459C25.0765 130.99 25.0765 131.67 25.0765 132.467V141.838L25.037 141.878ZM28.3259 126.728C28.3259 126.62 28.3556 126.531 28.4148 126.462C28.4741 126.384 28.5432 126.344 28.6321 126.295C28.7704 126.265 28.9778 126.236 29.2642 126.206C29.5506 126.167 29.8765 126.137 30.242 126.118C30.6074 126.098 30.9827 126.088 31.358 126.088C32.721 126.088 33.8963 126.374 34.8741 126.935C35.8617 127.506 36.6123 128.313 37.1457 129.386C37.6691 130.459 37.9358 131.758 37.9457 133.294C37.9457 134.219 37.837 135.056 37.6395 135.804C37.4321 136.542 37.1654 137.172 36.8296 137.694C36.4839 138.216 36.0889 138.619 35.6543 138.905C35.2 139.2 34.716 139.377 34.2222 139.466C33.7284 139.535 33.2543 139.564 32.7901 139.554C32.2173 139.554 31.6346 139.525 31.0716 139.476C30.4988 139.426 29.9951 139.367 29.5506 139.279C29.1062 139.19 28.7802 139.102 28.5827 138.993C28.4938 138.934 28.4346 138.865 28.3852 138.787C28.3457 138.718 28.316 138.629 28.316 138.521V126.738L28.3259 126.728Z" fill="white"/>
<defs>
<linearGradient id="paint0_linear_2_2862" x1="135.723" y1="13.8304" x2="156.014" y2="81.8484" gradientUnits="userSpaceOnUse">
<stop stop-color="#4E3E33"/>
<stop offset="1" stop-color="white"/>
</linearGradient>
<linearGradient id="paint1_linear_2_2862" x1="97.6495" y1="33.7442" x2="109.524" y2="93.3141" gradientUnits="userSpaceOnUse">
<stop stop-color="#CEBFB4"/>
<stop offset="1" stop-color="white"/>
</linearGradient>
</defs>
</svg>
