<svg width="200" height="200" viewBox="0 0 200 200" fill="none" xmlns="http://www.w3.org/2000/svg">
<path d="M40.8594 71.8751V114.414H15.1172C13.2813 114.414 11.7578 112.93 11.7578 111.055V75.1954C11.7578 73.3594 13.2422 71.8359 15.1172 71.8359H40.8594V71.8751Z" fill="#FC8A8A"/>
<path d="M40.8594 106.914V114.375H15.1172C13.2813 114.375 11.7578 112.89 11.7578 111.016V103.516C11.7578 105.39 13.2422 106.875 15.1172 106.875H40.8594V106.914Z" fill="#F96364"/>
<path d="M40.8594 71.875V79.3361H15.1172C13.2813 79.3361 11.7578 80.8204 11.7578 82.6956V75.2344C11.7578 73.3596 13.2422 71.875 15.1172 71.875H40.8594Z" fill="#FCB0B0"/>
<path d="M1.5625 79.9221V106.328C1.5625 108.164 3.04689 109.688 4.92189 109.688H11.7969V76.6016H4.92189C3.04689 76.6016 1.5625 78.0861 1.5625 79.9221Z" fill="#D3D9D9"/>
<path d="M11.7969 76.6016V82.3047H4.92189C3.08594 82.3047 1.5625 83.7893 1.5625 85.6641V79.961C1.5625 78.125 3.04689 76.6016 4.92189 76.6016H11.7969Z" fill="#E8EAEA"/>
<path d="M11.7969 103.984V109.687H4.92189C3.08594 109.687 1.5625 108.203 1.5625 106.328V100.625C1.5625 102.461 3.04689 103.984 4.92189 103.984H11.7969Z" fill="#A8B2B4"/>
<path d="M114.219 37.3828L40.8594 71.8751V114.414L114.219 148.906V37.3828Z" fill="#FEDD8E"/>
<path d="M128.867 36.4842V149.766C128.867 151.523 127.422 153.008 125.625 153.008H117.461C115.703 153.008 114.219 151.562 114.219 149.766V36.4842C114.219 34.7265 115.664 33.2422 117.461 33.2422H125.625C127.383 33.2422 128.867 34.7265 128.867 36.4842Z" fill="#FC8A8A"/>
<path d="M128.867 36.4842V45.3513C128.867 43.5936 127.422 42.1093 125.625 42.1093H117.461C115.703 42.1093 114.219 43.5545 114.219 45.3513V36.4842C114.219 34.7265 115.664 33.2422 117.461 33.2422H125.625C127.383 33.2422 128.867 34.7265 128.867 36.4842Z" fill="#FCB0B0"/>
<path d="M128.867 140.898V149.766C128.867 151.523 127.422 153.008 125.625 153.008H117.461C115.703 153.008 114.219 151.562 114.219 149.766V140.898C114.219 142.656 115.664 144.14 117.461 144.14H125.625C127.383 144.14 128.867 142.695 128.867 140.898Z" fill="#F96364"/>
<path d="M114.219 137.422L40.8594 103.438V114.414L114.219 148.906V137.422Z" fill="#FDD367"/>
<path d="M114.219 37.3828L40.8594 71.8751V82.8514L114.219 48.8671V37.3828Z" fill="#FEE9B4"/>
<path d="M37.4609 131.875C37.4609 136.25 34.1406 136.25 34.1406 140.586C34.1406 144.961 37.4609 144.961 37.4609 149.297C37.4609 153.672 34.1406 153.672 34.1406 158.008C34.1406 162.383 37.4609 162.383 37.4609 166.719H18.9844C16.875 166.719 15.1562 165.039 15.1562 162.93V114.414H37.4609C37.4609 118.789 34.1406 118.789 34.1406 123.125C34.1406 127.5 37.4609 127.5 37.4609 131.875Z" fill="#D3D9D9"/>
<path d="M34.1406 123.125C34.1406 123.203 34.1406 123.32 34.1406 123.399H15.1562V114.375H37.5C37.5 118.789 34.1406 118.789 34.1406 123.125Z" fill="#E8EAEA"/>
<path d="M37.5 166.758H18.9844C16.914 166.758 15.1562 165.078 15.1562 162.969V153.945C15.1562 156.054 16.875 157.734 18.9844 157.734H34.1406C34.1406 157.812 34.1406 157.93 34.1406 158.008C34.1406 162.383 37.5 162.383 37.5 166.758Z" fill="#A8B2B4"/>
<path d="M125.625 31.6797H117.461C114.844 31.6797 112.734 33.7891 112.695 36.3671L40.5469 70.3125H15.1563C12.5 70.3125 10.3516 72.422 10.2734 75.0391H4.92189C2.22656 75.0391 0 77.2265 0 79.9608V106.367C0 109.063 2.1875 111.289 4.92189 111.289H10.2344C10.3125 113.399 11.7187 115.117 13.5937 115.742V163.008C13.5937 165.977 16.0156 168.399 18.9844 168.399H37.5C38.3594 168.399 39.0626 167.695 39.0626 166.836C39.0626 164.141 37.9689 162.695 37.0703 161.523C35.2734 159.18 35.1954 157.149 37.0703 154.727C39.6874 151.328 39.8829 147.773 37.0703 144.101C35.2343 141.68 35.2343 139.649 37.0703 137.266C39.7657 133.672 39.7657 130.234 37.0703 126.641C35.3126 124.336 35.1954 122.305 37.0703 119.844C37.7734 118.945 38.5937 117.813 38.9063 116.094H40.5077L112.656 150.039C112.734 152.617 114.844 154.727 117.422 154.727H125.586C128.242 154.727 130.391 152.578 130.391 149.922C130.391 105.683 130.391 80.8797 130.391 36.6405C130.43 33.828 128.281 31.6797 125.625 31.6797ZM10.2344 108.125H4.92189C3.94531 108.125 3.125 107.344 3.125 106.328V79.922C3.125 78.9454 3.90626 78.1251 4.92189 78.1251H10.2344V108.125ZM34.5703 135.273C31.8749 138.789 31.914 142.461 34.5703 145.899C36.4454 148.359 36.3671 150.391 34.5703 152.734C31.914 156.172 31.8749 159.766 34.5703 163.359C35.0391 163.984 35.4297 164.492 35.664 165.195H18.9844C17.7344 165.195 16.7187 164.18 16.7187 162.93V115.977H35.664C35.4297 116.68 35.0391 117.227 34.5703 117.851C31.836 121.367 31.914 125.039 34.5703 128.477C36.4063 130.781 36.4454 132.851 34.5703 135.273ZM39.2969 112.851H15.1172C14.1406 112.851 13.3203 112.07 13.3203 111.055V75.1954C13.3203 74.2188 14.1016 73.3986 15.1172 73.3986H39.2969V112.851ZM112.656 146.445L42.422 113.399V72.8514L112.656 39.8437V146.445ZM127.305 149.766C127.305 150.664 126.523 151.445 125.625 151.445H117.461C116.563 151.445 115.781 150.664 115.781 149.766V36.4843C115.781 35.586 116.563 34.8045 117.461 34.8045H125.625C126.523 34.8045 127.305 35.586 127.305 36.4843V149.766Z" fill="#333333"/>
<path d="M198.437 28.0859C198.437 42.6954 186.563 54.5703 171.914 54.5703C167.07 54.5703 162.539 53.2811 158.633 51.0157L142.344 57.6171L148.945 41.328C146.68 37.422 145.391 32.8906 145.391 28.0859C145.391 13.4375 157.266 1.5625 171.914 1.5625C186.563 1.5625 198.437 13.4375 198.437 28.0859Z" fill="#7AD1F9"/>
<path d="M164.336 39.0235C166.191 39.0235 167.695 37.5195 167.695 35.6641C167.695 33.809 166.191 32.3047 164.336 32.3047C162.481 32.3047 160.977 33.809 160.977 35.6641C160.977 37.5195 162.481 39.0235 164.336 39.0235Z" fill="#D3F0FD"/>
<path d="M181.875 22.8516C180.547 24.1797 178.437 24.1797 177.109 22.8516C175.82 21.5234 175.82 19.414 177.109 18.125C178.437 16.7969 180.547 16.7969 181.875 18.125C183.164 19.414 183.164 21.5234 181.875 22.8516Z" fill="#D3F0FD"/>
<path d="M171.914 31.4454C173.77 31.4454 175.274 29.9411 175.274 28.0859C175.274 26.2306 173.77 24.7266 171.914 24.7266C170.059 24.7266 168.555 26.2306 168.555 28.0859C168.555 29.9411 170.059 31.4454 171.914 31.4454Z" fill="#D3F0FD"/>
<path d="M198.437 28.0859C198.437 42.6954 186.563 54.5703 171.914 54.5703C167.07 54.5703 162.539 53.2811 158.633 51.0157L142.344 57.6171L145.586 49.6094L157.695 44.6874C161.602 46.9531 166.133 48.2423 170.977 48.2423C185.625 48.2423 197.5 36.3671 197.5 21.7578C197.5 21.5234 197.5 21.2891 197.5 21.0547C198.086 23.2813 198.437 25.625 198.437 28.0859Z" fill="#4CC3F7"/>
<path d="M198.437 27.422C195.351 16.172 185.078 7.9298 172.851 7.9298C158.203 7.9298 146.328 19.8048 146.328 34.4531C146.328 34.6877 146.328 34.8829 146.328 35.0783C145.703 32.8517 145.391 30.508 145.391 28.1251C145.391 13.4767 157.266 1.60166 171.914 1.60166C186.328 1.5626 198.086 13.086 198.437 27.422Z" fill="#A6E1FB"/>
<path d="M190.664 118.75C180.313 129.101 163.555 129.101 153.164 118.75C149.727 115.313 147.461 111.172 146.289 106.836L133.359 100L146.328 93.164C147.5 88.7892 149.766 84.6875 153.203 81.2892C163.555 70.9375 180.351 70.9375 190.703 81.2892C201.016 91.6015 201.016 108.399 190.664 118.75Z" fill="#7BDE9E"/>
<path d="M190.664 118.75C180.313 129.101 163.555 129.101 153.164 118.75C149.727 115.313 147.461 111.172 146.289 106.836L133.359 100L146.328 93.164C147.5 88.7892 149.766 84.6875 153.203 81.2892C163.555 70.9375 180.351 70.9375 190.703 81.2892C201.016 91.6015 201.016 108.399 190.664 118.75Z" fill="#7BDE9E"/>
<path d="M164.023 100C164.023 101.953 162.383 103.594 160.43 103.594C158.437 103.594 156.836 101.953 156.836 100C156.836 98.0077 158.437 96.4062 160.43 96.4062C162.422 96.4062 164.023 98.0077 164.023 100Z" fill="#D3F3DE"/>
<path d="M187.031 100C187.031 101.992 185.43 103.594 183.437 103.594C181.484 103.594 179.844 101.992 179.844 100C179.844 98.0077 181.445 96.4062 183.437 96.4062C185.43 96.4062 187.031 98.0077 187.031 100Z" fill="#D3F3DE"/>
<path d="M175.547 100C175.547 101.992 173.906 103.594 171.953 103.594C169.961 103.594 168.359 101.992 168.359 100C168.359 98.0468 169.961 96.4062 171.953 96.4062C173.906 96.4062 175.508 98.0077 175.547 100Z" fill="#D3F3DE"/>
<path d="M193.047 116.016C192.344 116.953 191.523 117.891 190.664 118.75C180.313 129.101 163.555 129.101 153.164 118.75C149.727 115.313 147.461 111.172 146.289 106.836L133.359 99.9999L138.789 97.1094L149.883 102.969C151.016 107.344 153.32 111.484 156.758 114.883C166.719 124.844 182.656 125.234 193.047 116.016Z" fill="#50D27E"/>
<path d="M190.664 118.75C190.274 119.141 189.883 119.531 189.492 119.844C197.383 109.453 196.602 94.5703 187.11 85.078C177.149 75.1171 161.172 74.7657 150.781 83.9843C151.524 83.0077 152.305 82.1094 153.203 81.2108C163.555 70.8594 180.352 70.8594 190.703 81.2108C201.016 91.6014 201.016 108.399 190.664 118.75Z" fill="#A7E9BF"/>
<path d="M198.437 171.914C198.437 186.563 186.563 198.437 171.914 198.437C157.305 198.437 145.43 186.563 145.43 171.914C145.43 167.07 146.719 162.539 148.984 158.633L142.383 142.344L158.672 148.945C162.578 146.68 167.109 145.391 171.914 145.391C186.563 145.391 198.437 157.266 198.437 171.914Z" fill="#BD90BE"/>
<path d="M174.453 169.375C175.859 170.781 175.859 173.047 174.453 174.453C173.047 175.86 170.781 175.86 169.375 174.453C167.969 173.047 167.969 170.781 169.375 169.375C170.781 168.008 173.047 168.008 174.453 169.375Z" fill="#E9DAE9"/>
<path d="M163.789 167.383C165.774 167.383 167.383 165.774 167.383 163.789C167.383 161.804 165.774 160.195 163.789 160.195C161.804 160.195 160.195 161.804 160.195 163.789C160.195 165.774 161.804 167.383 163.789 167.383Z" fill="#E9DAE9"/>
<path d="M182.578 182.578C181.172 183.984 178.906 183.984 177.5 182.578C176.094 181.172 176.094 178.906 177.5 177.5C178.906 176.094 181.172 176.094 182.578 177.5C183.984 178.906 183.984 181.211 182.578 182.578Z" fill="#E9DAE9"/>
<path d="M198.437 171.914C198.437 186.563 186.563 198.437 171.914 198.437C157.5 198.437 145.781 186.914 145.43 172.578C148.516 183.828 158.789 192.07 170.977 192.07C185.625 192.07 197.5 180.195 197.5 165.547C197.5 165.313 197.5 165.078 197.5 164.883C198.086 167.149 198.437 169.492 198.437 171.914Z" fill="#A76BA8"/>
<path d="M197.5 171.25C194.414 160 184.141 151.758 171.914 151.758C167.07 151.758 162.539 153.047 158.672 155.312L144.375 149.531L141.484 142.422L157.774 149.023C161.68 146.758 166.211 145.469 171.016 145.469C185.43 145.39 197.149 156.914 197.5 171.25Z" fill="#D3B5D3"/>
<path d="M142.383 59.1797C141.992 59.1797 141.563 59.0234 141.289 58.7109C140.859 58.2811 140.703 57.6171 140.937 57.0311L147.266 41.4454C145.039 37.3829 143.867 32.7734 143.867 28.0859C143.867 12.6172 156.445 0 171.953 0C187.461 0 200 12.5781 200 28.0859C200 43.5546 187.422 56.1329 171.914 56.1329C167.227 56.1329 162.617 54.9609 158.555 52.7343L142.969 59.0626C142.773 59.1406 142.578 59.1797 142.383 59.1797ZM171.914 3.125C158.164 3.125 146.953 14.3359 146.953 28.0859C146.953 32.4609 148.125 36.7969 150.313 40.5469C150.547 40.9766 150.586 41.4843 150.43 41.914L145.234 54.7657L158.086 49.5703C158.516 49.3751 159.023 49.414 159.453 49.6486C163.242 51.836 167.539 53.0077 171.953 53.0077C185.703 53.0077 196.914 41.836 196.914 28.0859C196.875 14.3359 185.664 3.125 171.914 3.125Z" fill="#333333"/>
<path d="M152.07 119.844C148.711 116.484 146.289 112.383 145 107.891L132.656 101.367C132.149 101.094 131.836 100.547 131.836 100C131.836 99.414 132.149 98.9063 132.656 98.6329L145 92.1095C146.328 87.6172 148.75 83.5158 152.07 80.1955C163.008 69.2578 180.82 69.2578 191.758 80.1955C197.07 85.5078 200 92.5392 200 100.039C200 107.539 197.07 114.57 191.758 119.883C180.859 130.742 163.086 130.82 152.07 119.844ZM136.719 100L147.07 105.43C147.461 105.625 147.734 105.977 147.851 106.406C148.945 110.625 151.172 114.492 154.297 117.617C164.023 127.344 179.844 127.344 189.57 117.617C199.297 107.891 199.297 92.0703 189.57 82.3438C179.844 72.6172 164.023 72.6172 154.297 82.3438C151.211 85.4298 148.945 89.2969 147.851 93.5158C147.734 93.9455 147.461 94.2969 147.07 94.4923L136.719 100Z" fill="#333333"/>
<path d="M171.914 200C156.445 200 143.867 187.422 143.867 171.914C143.867 167.227 145.039 162.617 147.266 158.555L140.937 142.969C140.703 142.383 140.82 141.719 141.289 141.289C141.719 140.859 142.422 140.703 142.969 140.937L158.555 147.266C162.617 145.039 167.227 143.867 171.914 143.867C187.383 143.867 200 156.445 200 171.953C200 187.422 187.383 200 171.914 200ZM145.234 145.195L150.43 158.047C150.625 158.477 150.586 158.985 150.313 159.414C148.125 163.164 146.953 167.5 146.953 171.875C146.953 185.625 158.125 196.836 171.875 196.836C185.625 196.836 196.836 185.625 196.836 171.875C196.836 158.125 185.625 146.914 171.875 146.914C167.5 146.914 163.164 148.086 159.414 150.273C158.984 150.508 158.477 150.547 158.047 150.391L145.234 145.195Z" fill="#333333"/>
</svg>
