<svg width="200" height="200" viewBox="0 0 200 200" fill="none" xmlns="http://www.w3.org/2000/svg">
<path d="M122.917 152.917C125.417 144.584 130.417 137.084 137.084 131.25C149.584 120.834 157.501 105 157.501 87.5004C157.501 55.0004 130.417 28.3335 97.0838 30.0004C67.5001 31.2504 43.3332 56.2504 42.5001 85.8335C42.0832 104.167 50.0001 120.417 62.9169 131.25C70.0001 137.084 75.0001 144.584 77.5001 152.917H122.917Z" fill="#FFD15C"/>
<path d="M94.5832 153.75H98.3332L81.6664 91.6669C82.0832 91.6669 82.4995 91.6669 82.9164 91.6669C84.9995 91.6669 87.0832 90.8335 88.7495 89.1669C89.583 88.3335 90.4164 87.9169 91.6664 87.9169C92.9164 87.9169 93.7495 88.3335 94.5832 89.1669C97.5001 92.5001 102.5 92.5001 105.416 89.1669C106.25 88.3335 107.083 87.9169 108.333 87.9169C109.166 87.9169 110.416 88.3335 111.25 89.1669C112.917 90.8335 114.583 91.6669 117.083 91.6669C117.5 91.6669 117.916 91.6669 118.333 91.6669L102.083 153.75H105.833L122.916 88.7501C122.916 87.9169 122.916 87.0832 122.083 86.6669C121.25 86.2501 120.416 86.6669 120 87.0835C119.167 87.9169 118.333 88.3335 117.5 88.3335C116.25 88.3335 115.417 87.9169 114.167 87.0835C112.5 85.4169 110.834 84.5835 108.75 84.5835C106.666 84.5835 105 85.4169 103.333 87.0835C101.666 88.7504 99.1664 88.7504 97.5001 87.0835C96.2501 85.4169 94.167 84.5835 92.0832 84.5835C90.0001 84.5835 87.9164 85.4169 86.6664 87.0835C85.8332 87.9169 84.5832 88.3335 83.3332 88.3335C82.5001 88.3335 81.2501 87.9169 80.8332 87.0835C80.4164 86.6669 79.5832 86.2504 78.7501 86.6669C77.917 87.0835 77.5001 87.9169 77.917 88.7501L94.5832 153.75Z" fill="white"/>
<path d="M87.083 191.25C89.1667 196.25 94.1667 200 99.9999 200C105.833 200 110.833 196.25 112.917 191.25H87.083Z" fill="#344A5E"/>
<path d="M115.417 191.667H85C80.8331 191.667 77.5 188.334 77.5 184.167V152.5H122.917V184.167C122.917 188.333 119.583 191.667 115.417 191.667Z" fill="#344A5E"/>
<path d="M122.5 168.333H77.5001C75.0001 168.333 72.917 166.25 72.917 163.75C72.917 161.25 75.0001 159.167 77.5001 159.167H122.5C125 159.167 127.083 161.25 127.083 163.75C127.083 166.25 125 168.333 122.5 168.333Z" fill="#415A6B"/>
<path d="M122.5 182.916H77.5001C75.0001 182.916 72.917 180.833 72.917 178.333C72.917 175.833 75.0001 173.75 77.5001 173.75H122.5C125 173.75 127.083 175.833 127.083 178.333C127.083 180.833 125 182.916 122.5 182.916Z" fill="#415A6B"/>
<path d="M99.9999 0C97.9167 0 95.833 1.6668 95.833 4.1668V18.3336C95.833 20.4168 97.4999 22.5004 99.9999 22.5004C102.5 22.5004 104.167 20.8336 104.167 18.3336V4.1668C104.167 1.6668 102.083 0 99.9999 0Z" fill="#FFD15C"/>
<path d="M44.1667 25.4166C42.4999 23.7498 39.9999 23.7498 38.3333 25.4166C36.667 27.0834 36.6667 29.5835 38.3333 31.2498L48.3333 41.2498C50.0002 42.9166 52.5002 42.9166 54.1667 41.2498C55.833 39.5829 55.8333 37.0829 54.1667 35.4166L44.1667 25.4166Z" fill="#FFD15C"/>
<path d="M31.2501 82.917H17.0833C15.0001 82.917 12.9165 84.5839 12.9165 87.0839C12.9165 89.167 14.5833 91.2507 17.0833 91.2507H31.2501C33.3332 91.2507 35.4169 89.5839 35.4169 87.0839C35.4169 85.0001 33.3332 82.917 31.2501 82.917Z" fill="#FFD15C"/>
<path d="M48.3329 132.916L38.3329 142.916C36.6664 144.583 36.6664 147.083 38.3329 148.75C39.9998 150.416 42.4998 150.416 44.1664 148.75L54.1664 138.75C55.8329 137.083 55.8329 134.583 54.1664 132.916C52.4995 131.25 49.9998 131.25 48.3329 132.916Z" fill="#FFD15C"/>
<path d="M151.667 132.917C150 131.25 147.5 131.25 145.833 132.917C144.166 134.584 144.166 137.084 145.833 138.75L155.833 148.75C157.5 150.417 160 150.417 161.666 148.75C163.333 147.083 163.333 144.583 161.666 142.917L151.667 132.917Z" fill="#FFD15C"/>
<path d="M182.917 82.917H168.75C166.667 82.917 164.583 84.5839 164.583 87.0839C164.583 89.167 166.25 91.2507 168.75 91.2507H182.917C185 91.2507 187.084 89.5839 187.084 87.0839C187.084 85.0001 185.417 82.917 182.917 82.917Z" fill="#FFD15C"/>
<path d="M155.833 25.4169L145.833 35.417C144.166 37.0839 144.166 39.5839 145.833 41.2501C147.5 42.917 150 42.917 151.666 41.2501L161.666 31.2501C163.333 29.5833 163.333 27.0833 161.666 25.4169C160 23.7505 157.5 23.7501 155.833 25.4169Z" fill="#FFD15C"/>
</svg>
