<svg width="208" height="208" viewBox="0 0 208 208" fill="none" xmlns="http://www.w3.org/2000/svg">
<g filter="url(#filter0_d_2_2709)">
<mask id="mask0_2_2709" style="mask-type:luminance" maskUnits="userSpaceOnUse" x="4" y="0" width="200" height="200">
<path d="M204 0H4V200H204V0Z" fill="white"/>
</mask>
<g mask="url(#mask0_2_2709)">
<path d="M137.397 133.395L156.374 104.64L137.397 99.7498C134.911 92.2921 130.684 85.2475 124.718 79.2812C118.834 73.3973 111.873 69.0878 104.249 66.6018L104 66.8507L80.8797 65.939L70.6034 66.6018C62.9797 69.0878 56.0189 73.3973 50.1349 79.2812L19.4137 110.002C-1.13789 130.554 -1.13789 163.955 19.4137 184.507C40.5454 205.639 73.9423 204.562 93.9966 184.507L124.718 153.864C130.685 147.897 134.911 140.854 137.397 133.395ZM73.2794 163.789C63.9977 173.071 49.1646 172.822 40.1311 163.789C31.0156 154.673 31.0156 139.757 40.1311 130.641L70.6034 100.247L87.2606 116.738L104 133.146L73.2794 163.789Z" fill="#4A696F"/>
<path d="M124.718 153.864L93.9974 184.506C73.9428 204.561 40.5462 205.638 19.4146 184.506L40.1316 163.789C49.1651 172.822 63.9982 173.07 73.2799 163.789L104.001 133.146L87.2614 116.738L124.718 79.2808C130.685 85.247 134.912 92.2913 137.398 99.7496L156.375 104.639L137.398 133.395C134.912 140.853 130.685 147.897 124.718 153.864Z" fill="#384949"/>
<path d="M166.152 170.438L157.865 162.151C155.574 159.861 155.574 156.154 157.865 153.864C160.155 151.574 163.862 151.574 166.152 153.864L174.439 162.151C176.729 164.441 176.729 168.148 174.439 170.438C172.148 172.728 168.442 172.728 166.152 170.438Z" fill="#D2C5C2"/>
<path d="M41.8469 46.1331L33.5594 37.846C31.2692 35.5557 31.2692 31.8491 33.5594 29.5594C35.8497 27.2695 39.5563 27.2691 41.8463 29.5594L50.1329 37.846C52.4232 40.1363 52.4232 43.8428 50.1329 46.1328C47.8426 48.4225 44.1369 48.4228 41.8469 46.1331Z" fill="#DFD7D5"/>
<path d="M177.579 119.713C178.416 116.585 181.629 114.731 184.757 115.569L196.079 118.604C199.207 119.425 201.052 122.654 200.223 125.782C199.385 128.91 196.172 130.763 193.044 129.925L181.723 126.891C178.615 126.059 176.741 122.859 177.579 119.713Z" fill="#D2C5C2"/>
<path d="M7.77739 74.2146C8.61488 71.0864 11.8278 69.2332 14.9555 70.0709L26.2774 73.1061C29.3934 73.9232 31.2543 77.1524 30.4211 80.2841C29.5837 83.4124 26.3707 85.2655 23.243 84.4278L11.9211 81.3926C8.81371 80.5612 6.93871 77.3612 7.77739 74.2146Z" fill="#DFD7D5"/>
<path d="M122.604 192.078L119.569 180.756C118.732 177.628 120.585 174.416 123.713 173.578C126.841 172.741 130.05 174.582 130.891 177.722L133.926 189.044C134.764 192.172 132.91 195.384 129.782 196.222C126.636 197.06 123.436 195.186 122.604 192.078Z" fill="#D2C5C2"/>
<path d="M77.1079 22.2754L74.0728 10.9535C73.2353 7.82537 75.0885 4.61289 78.2165 3.77537C81.3448 2.94609 84.561 4.77889 85.3948 7.91912L88.4299 19.241C89.2673 22.3691 87.4142 25.5816 84.2862 26.4191C81.1399 27.2566 77.9399 25.382 77.1079 22.2754Z" fill="#DFD7D5"/>
<path d="M188.587 15.4903C168.035 -5.06127 134.638 -5.14447 114.004 15.4903L83.2826 46.1332C77.3163 52.0998 73.0898 59.1435 70.6032 66.6021C66.9569 77.5412 66.9572 89.3084 70.6038 100.247C73.0898 107.705 77.3163 114.75 83.2826 120.716C89.0838 126.518 96.0446 130.826 103.752 133.396L104 133.147C113.116 124.031 113.116 109.115 104 99.9989C94.8846 90.8832 94.8846 75.9664 104 66.8509L134.721 36.2078C139.197 31.7324 144.997 29.4126 151.296 29.4126C151.461 29.2472 152.87 29.3298 153.202 29.4955C157.677 29.4949 163.56 31.8981 167.869 36.2078C176.985 45.3235 176.985 60.2398 167.869 69.3558L137.397 99.7498C141.044 110.689 141.044 122.456 137.397 133.396C144.938 130.827 152.065 126.517 157.866 120.716L188.587 90.0732C209.139 69.5212 209.138 36.0418 188.587 15.4903Z" fill="#FFD400"/>
<path d="M104 133.146L103.752 133.394C96.0453 130.826 89.0836 126.517 83.2827 120.715L104 99.998C113.116 109.114 113.116 124.03 104 133.146Z" fill="#FF9F00"/>
<path d="M188.587 90.073L157.866 120.716C152.065 126.517 144.938 130.827 137.397 133.395C141.043 122.456 141.043 110.689 137.397 99.7496L167.869 69.3559C176.985 60.2399 176.984 45.3236 167.869 36.2079L188.586 15.4902C209.138 36.0413 209.139 69.5207 188.587 90.073Z" fill="#FF9F00"/>
</g>
</g>
<defs>
<filter id="filter0_d_2_2709" x="0" y="0.0454102" width="208" height="207.909" filterUnits="userSpaceOnUse" color-interpolation-filters="sRGB">
<feFlood flood-opacity="0" result="BackgroundImageFix"/>
<feColorMatrix in="SourceAlpha" type="matrix" values="0 0 0 0 0 0 0 0 0 0 0 0 0 0 0 0 0 0 127 0" result="hardAlpha"/>
<feOffset dy="4"/>
<feGaussianBlur stdDeviation="2"/>
<feComposite in2="hardAlpha" operator="out"/>
<feColorMatrix type="matrix" values="0 0 0 0 0 0 0 0 0 0 0 0 0 0 0 0 0 0 0.25 0"/>
<feBlend mode="normal" in2="BackgroundImageFix" result="effect1_dropShadow_2_2709"/>
<feBlend mode="normal" in="SourceGraphic" in2="effect1_dropShadow_2_2709" result="shape"/>
</filter>
</defs>
</svg>
