<svg width="200" height="200" viewBox="0 0 200 200" fill="none" xmlns="http://www.w3.org/2000/svg">
<path d="M200 82.0317L100 200L99.4017 199.297L0 82.0317L44.3314 38.3945H155.669L200 82.0317Z" fill="#00E8F2"/>
<path d="M200 82.0317L100 200V38.3945H155.669L200 82.0317Z" fill="#00CEF5"/>
<path d="M133.496 81.934H66.5039L99.4016 39.1728L99.9999 38.3945L133.496 81.934Z" fill="#9CFDFF"/>
<path d="M155.667 38.3945L133.008 81.934H200L155.667 38.3945Z" fill="#00F8FE"/>
<path d="M44.3329 38.3945L66.9923 81.934H0L44.3329 38.3945Z" fill="#9CFDFF"/>
<path d="M94.1406 0H105.859V24.2813H94.1406V0Z" fill="#9CFDFF"/>
<path d="M123.768 24.806L133.27 2.04297L144.084 6.55803L134.582 29.3196L123.768 24.806Z" fill="#00F8FE"/>
<path d="M55.9121 6.55561L66.7261 2.04053L76.2278 24.8036L65.4138 29.3171L55.9121 6.55561Z" fill="#9CFDFF"/>
<path d="M133.008 81.9336L99.9999 200L99.4016 197.864L66.9922 81.9336H133.008Z" fill="#00F8FE"/>
<path d="M100 0H105.859V24.2813H100V0Z" fill="#00F8FE"/>
<path d="M133.496 81.934H133.008L100 200V38.3945L133.496 81.934Z" fill="#9CFDFF"/>
<path d="M133.496 81.934H100V38.3945L133.496 81.934Z" fill="#00F8FE"/>
</svg>
