<svg width="200" height="200" viewBox="0 0 200 200" fill="none" xmlns="http://www.w3.org/2000/svg">
<mask id="mask0_2_2662" style="mask-type:luminance" maskUnits="userSpaceOnUse" x="0" y="0" width="200" height="200">
<path d="M200 0H0V200H200V0Z" fill="white"/>
</mask>
<g mask="url(#mask0_2_2662)">
<path d="M196.854 147.455L110.517 197.268C104.224 200.9 96.4572 200.912 90.1555 197.296L3.16265 147.43C-1.01704 145.035 -1.02485 139.047 3.14665 136.64L19.2279 127.359L89.4832 86.8255C95.7764 83.1941 103.543 83.1818 109.845 86.7932L180.845 127.496L196.838 136.663C201.017 139.059 201.025 145.047 196.854 147.455Z" fill="#FFF273"/>
<path d="M180.845 127.496L112.724 166.801C105.11 171.194 95.7162 171.206 88.0945 166.837L19.228 127.359L89.4836 86.8255C95.7765 83.1941 103.543 83.1818 109.845 86.7932L180.845 127.496Z" fill="#FFDE1D"/>
<path d="M196.854 105.407L110.517 155.221C104.224 158.853 96.4572 158.865 90.1555 155.249L3.16265 105.383C-1.01704 102.987 -1.02485 97.0001 3.14665 94.5924L20.1056 84.8084L89.4838 44.7781C95.7767 41.1467 103.544 41.1344 109.845 44.7501L179.964 84.9412L196.838 94.6164C201.017 97.0121 201.025 102.999 196.854 105.407Z" fill="#FF92A6"/>
<path d="M179.963 84.9412L112.546 123.84C105.041 128.172 95.7722 128.184 88.2551 123.876L20.1055 84.8084L89.4837 44.7781C95.7765 41.1467 103.543 41.1344 109.845 44.7501L179.963 84.9412Z" fill="#FF758E"/>
<path d="M196.838 52.5706L109.843 2.70173C103.542 -0.910771 95.775 -0.899834 89.4836 2.73025L3.14654 52.5466C-1.02573 54.954 -1.01713 60.94 3.16177 63.3357L90.1567 113.205C96.4581 116.817 104.225 116.806 110.516 113.176L196.854 63.3594C201.026 60.952 201.017 54.9663 196.838 52.5706Z" fill="#4972FF"/>
</g>
</svg>
