<svg width="200" height="200" viewBox="0 0 200 200" fill="none" xmlns="http://www.w3.org/2000/svg">
<mask id="mask0_2_2640" style="mask-type:luminance" maskUnits="userSpaceOnUse" x="0" y="0" width="200" height="200">
<path d="M200 0H0V200H200V0Z" fill="white"/>
</mask>
<g mask="url(#mask0_2_2640)">
<path d="M196.685 85.2527C196.204 83.7744 195.319 82.4601 194.131 81.4584C192.942 80.4567 191.497 79.8073 189.958 79.5838L132.962 71.3016L107.473 19.6558C106.765 18.2836 105.694 17.1327 104.376 16.3292C103.058 15.5256 101.544 15.1006 100 15.1006C98.4562 15.1006 96.9422 15.5256 95.624 16.3292C94.3057 17.1327 93.2342 18.2836 92.5271 19.6558L67.0374 71.3016L10.0416 79.5838C8.51899 79.8336 7.09447 80.4973 5.92396 81.5024C4.75344 82.5078 3.88207 83.8156 3.40524 85.283C2.92844 86.7504 2.86456 88.3207 3.22059 89.8218C3.57661 91.323 4.33887 92.6976 5.42384 93.7944L46.6665 133.996L36.93 190.767C36.6962 192.293 36.8868 193.854 37.4811 195.278C38.0757 196.703 39.0505 197.936 40.2994 198.844C41.5482 199.751 43.0228 200.297 44.5611 200.422C46.0997 200.547 47.6431 200.246 49.0217 199.552L100 172.746L150.978 199.546C152.357 200.241 153.9 200.542 155.439 200.418C156.977 200.293 158.452 199.747 159.701 198.84C160.95 197.932 161.925 196.698 162.519 195.274C163.113 193.849 163.304 192.288 163.07 190.762L153.333 133.996L194.576 93.7944C195.689 92.7093 196.477 91.3341 196.85 89.8247C197.223 88.3153 197.166 86.7316 196.685 85.2527Z" fill="url(#paint0_linear_2_2640)"/>
<path d="M197.199 44.6183C194.327 44.6134 191.574 43.4705 189.544 41.44C187.513 39.4094 186.37 36.6565 186.365 33.7848C186.372 33.4125 186.306 33.0425 186.168 32.6965C186.03 32.3505 185.825 32.0351 185.564 31.7694C185.304 31.5037 184.993 31.2923 184.649 31.1483C184.306 31.004 183.937 30.9297 183.565 30.9297C183.192 30.9297 182.824 31.004 182.48 31.1483C182.137 31.2923 181.826 31.5037 181.565 31.7694C181.304 32.0351 181.099 32.3505 180.962 32.6965C180.824 33.0425 180.757 33.4125 180.764 33.7848C180.76 36.6565 179.617 39.4094 177.586 41.44C175.556 43.4705 172.803 44.6134 169.931 44.6183C169.188 44.6183 168.476 44.9134 167.95 45.4385C167.425 45.964 167.13 46.6763 167.13 47.4191C167.13 48.162 167.425 48.8745 167.95 49.4C168.476 49.9251 169.188 50.2203 169.931 50.2203C172.804 50.2234 175.558 51.3654 177.59 53.3963C179.622 55.4271 180.765 58.1808 180.77 61.0537C180.762 61.426 180.83 61.796 180.967 62.142C181.104 62.488 181.31 62.8031 181.57 63.0691C181.831 63.3348 182.142 63.546 182.486 63.6903C182.829 63.8345 183.198 63.9085 183.57 63.9085C183.942 63.9085 184.311 63.8345 184.654 63.6903C184.998 63.546 185.309 63.3348 185.57 63.0691C185.83 62.8031 186.036 62.488 186.173 62.142C186.311 61.796 186.378 61.426 186.371 61.0537C186.375 58.1808 187.518 55.4271 189.55 53.3963C191.582 51.3654 194.336 50.2234 197.209 50.2203C197.952 50.2203 198.664 49.9251 199.19 49.4C199.715 48.8745 200.01 48.162 200.01 47.4191C200.01 46.6763 199.715 45.964 199.19 45.4385C198.664 44.9134 197.952 44.6183 197.209 44.6183H197.199Z" fill="#67D9FB"/>
<path d="M155.532 14.4096C152.661 14.4049 149.908 13.262 147.877 11.2314C145.847 9.20076 144.704 6.44799 144.699 3.57625C144.706 3.20393 144.639 2.83393 144.501 2.48786C144.364 2.1418 144.159 1.82663 143.898 1.56079C143.637 1.29495 143.326 1.08377 142.983 0.939606C142.639 0.795446 142.271 0.721191 141.899 0.721191C141.526 0.721191 141.157 0.795446 140.814 0.939606C140.471 1.08377 140.159 1.29495 139.899 1.56079C139.638 1.82663 139.433 2.1418 139.295 2.48786C139.158 2.83393 139.091 3.20393 139.098 3.57625C139.093 6.44799 137.95 9.20076 135.92 11.2314C133.889 13.262 131.136 14.4049 128.265 14.4096C127.897 14.4096 127.533 14.482 127.193 14.6228C126.853 14.7636 126.544 14.9699 126.284 15.23C126.024 15.4901 125.817 15.7989 125.677 16.1387C125.536 16.4786 125.463 16.8428 125.463 17.2106C125.463 17.5784 125.536 17.9427 125.677 18.2825C125.817 18.6224 126.024 18.9312 126.284 19.1912C126.544 19.4514 126.853 19.6577 127.193 19.7984C127.533 19.9392 127.897 20.0117 128.265 20.0117C131.137 20.0147 133.892 21.1569 135.923 23.1877C137.955 25.2186 139.099 27.9723 139.103 30.8451C139.096 31.2174 139.163 31.5874 139.301 31.9334C139.438 32.2794 139.643 32.5945 139.904 32.8605C140.165 33.1262 140.476 33.3374 140.819 33.4816C141.163 33.6259 141.531 33.6999 141.904 33.6999C142.276 33.6999 142.645 33.6259 142.988 33.4816C143.331 33.3374 143.643 33.1262 143.903 32.8605C144.164 32.5945 144.369 32.2794 144.507 31.9334C144.644 31.5874 144.711 31.2174 144.704 30.8451C144.709 27.9723 145.852 25.2186 147.884 23.1877C149.916 21.1569 152.67 20.0147 155.543 20.0117C156.286 20.0117 156.998 19.7166 157.523 19.1912C158.049 18.666 158.344 17.9535 158.344 17.2106C158.344 16.4677 158.049 15.7553 157.523 15.23C156.998 14.7047 156.286 14.4096 155.543 14.4096H155.532Z" fill="#CCF2FE"/>
<path d="M63.8654 39.4096C60.9937 39.4048 58.2409 38.2619 56.2103 36.2314C54.1797 34.2008 53.0369 31.4479 53.0323 28.5762C53.0394 28.2039 52.9723 27.8339 52.8346 27.4879C52.6972 27.1418 52.492 26.8266 52.2312 26.5608C51.9706 26.295 51.6594 26.0838 51.316 25.9396C50.9726 25.7954 50.604 25.7212 50.2317 25.7212C49.8592 25.7212 49.4906 25.7954 49.1472 25.9396C48.804 26.0838 48.4929 26.295 48.232 26.5608C47.9712 26.8266 47.766 27.1418 47.6286 27.4879C47.4912 27.8339 47.424 28.2039 47.4312 28.5762C47.4266 31.4479 46.2834 34.2008 44.2529 36.2314C42.2223 38.2619 39.4694 39.4048 36.5977 39.4096C35.8549 39.4096 35.1426 39.7048 34.6172 40.2299C34.0917 40.7554 33.7969 41.4676 33.7969 42.2105C33.7969 42.9536 34.0917 43.6659 34.6172 44.1914C35.1426 44.7165 35.8549 45.0116 36.5977 45.0116C39.4706 45.0148 42.2249 46.1568 44.2566 48.1876C46.2883 50.2185 47.432 52.9722 47.4363 55.8451C47.4292 56.2174 47.4963 56.5874 47.6337 56.9334C47.7714 57.2794 47.9766 57.5945 48.2372 57.8605C48.498 58.1262 48.8092 58.3374 49.1526 58.4816C49.4957 58.6259 49.8646 58.6999 50.2369 58.6999C50.6092 58.6999 50.978 58.6259 51.3212 58.4816C51.6646 58.3374 51.9757 58.1262 52.2366 57.8605C52.4972 57.5945 52.7023 57.2794 52.84 56.9334C52.9774 56.5874 53.0446 56.2174 53.0374 55.8451C53.0417 52.9722 54.1852 50.2185 56.2172 48.1876C58.2489 46.1568 61.0032 45.0148 63.876 45.0116C64.6189 45.0116 65.3312 44.7165 65.8566 44.1914C66.3817 43.6659 66.6769 42.9536 66.6769 42.2105C66.6769 41.4676 66.3817 40.7554 65.8566 40.2299C65.3312 39.7048 64.6189 39.4096 63.876 39.4096H63.8654Z" fill="#34CDFA"/>
</g>
<defs>
<linearGradient id="paint0_linear_2_2640" x1="32.1625" y1="190.855" x2="167.868" y2="55.1507" gradientUnits="userSpaceOnUse">
<stop stop-color="#34CDFA"/>
<stop offset="1" stop-color="#E8D9F1"/>
</linearGradient>
</defs>
</svg>
