<svg width="64" height="89" viewBox="0 0 64 89" fill="none" xmlns="http://www.w3.org/2000/svg">
<path d="M0.759766 17.9844L6.44594 81.2087L31.9616 88.0164L57.5484 81.3374L63.2409 17.9844H0.759766ZM51.4136 32.3781L51.0571 36.4801L50.9003 38.3751H20.969L21.6841 46.8126H50.1887L49.9982 48.3812L48.1595 68.7079L48.0245 69.8962L32.0003 74.2091V74.2056L31.9813 74.214L15.9662 70.0544L14.8792 58.0626H22.7317L23.2879 64.011L31.9961 66.2181L32.0003 66.0536V66.062L40.7275 64.1994L41.6387 54.5469H14.5298L12.6074 32.8654L12.4197 30.6407H51.6006L51.4136 32.3781ZM6.65687 0.144043H10.6098V4.05061H14.2267V0.144043H18.1804V11.972H14.2267V8.01131H10.6105V11.972H6.65687V0.144043ZM23.3786 4.06678H19.8981V0.144043H30.8141V4.06678H27.3323V11.972H23.3786V4.06678ZM32.5466 0.144043H36.6684L39.2045 4.30022L41.7379 0.144043H45.8617V11.972H41.9235V6.10936L39.2045 10.3147H39.1356L36.4145 6.10936V11.972H32.5459L32.5466 0.144043ZM47.8298 0.144043H51.7841V8.06264H57.3438V11.9727H47.8298V0.144043Z" fill="#E44D26"/>
</svg>
