<svg width="89" height="89" viewBox="0 0 89 89" fill="none" xmlns="http://www.w3.org/2000/svg">
<path d="M53.2273 45.1271C51.5862 44.5871 49.2237 44.7031 46.1398 44.7031H33.75V60.875H46.9997C49.0697 60.875 50.5237 60.6535 51.3612 60.4988C52.837 60.2345 54.071 59.7226 55.0624 59.1052C56.0531 58.4893 56.868 57.5548 57.5079 56.3764C58.1463 55.198 58.4663 53.8191 58.4663 52.2772C58.4663 50.4716 58.0036 49.085 57.0776 47.7519C56.1523 46.4188 54.8691 45.6671 53.2273 45.1271ZM51.5264 37.733C53.1555 37.2493 54.3839 36.4041 55.2101 35.2812C56.037 34.1577 56.4497 32.7282 56.4497 31.0316C56.4497 29.4242 56.0637 27.9983 55.2923 26.7748C54.521 25.5514 53.4206 25.0782 51.9884 24.6261C50.5561 24.1754 48.1001 24.3125 44.6196 24.3125H33.75V38.375H45.4127C48.2548 38.375 50.2917 38.1078 51.5264 37.733ZM88.5938 12.0957C88.5938 5.63961 83.3604 0.40625 76.9043 0.40625H12.3926C5.93648 0.40625 0.703125 5.63961 0.703125 12.0957V76.6074C0.703125 83.0635 5.93648 88.2969 12.3926 88.2969H76.9043C83.3604 88.2969 88.5938 83.0635 88.5938 76.6074V12.0957ZM63.6701 58.5863C62.7124 60.5361 61.5277 62.0394 60.1179 63.0969C58.7074 64.1544 56.9391 65.0516 54.8135 65.5916C52.6887 66.1323 50.0829 66.5 46.9997 66.5H27.4219V17.9844H46.7016C50.4028 17.9844 53.3707 18.4126 55.6066 19.392C57.8433 20.3729 59.5941 21.8509 60.8618 23.8885C62.1281 25.9262 62.7616 28.0419 62.7616 30.2666C62.7616 32.3373 62.1991 34.28 61.0762 36.1081C59.9527 37.9377 58.256 39.4086 55.9877 40.5322C58.917 41.3914 61.1698 42.8553 62.7448 44.9253C64.3198 46.996 65.1073 49.4408 65.1073 52.2603C65.1073 54.5293 64.6284 56.6373 63.6701 58.5863Z" fill="#5B4282"/>
</svg>
