<svg width="90" height="46" viewBox="0 0 90 46" fill="none" xmlns="http://www.w3.org/2000/svg">
<path d="M45 45.8002C20.1375 45.8002 0 35.6002 0 23.0002C0 10.4002 20.1375 0.200195 45 0.200195C69.8625 0.200195 90 10.4002 90 23.0002C90 35.6002 69.8625 45.8002 45 45.8002ZM25.5375 15.9877C27.5625 15.9877 28.95 16.3627 29.625 17.1502C30.3 17.9002 30.45 19.2502 30.1125 21.0127C29.7375 23.0002 29.025 24.2752 27.9375 25.1002C26.8875 25.9252 25.275 26.3377 23.1 26.3377H19.8375L21.825 15.9877H25.5375ZM12.4125 36.8002H17.8125L19.0875 30.2377H23.7C25.725 30.2377 27.375 30.0127 28.6875 29.6002C30 29.1502 31.2 28.4377 32.2875 27.4252C33.1875 26.6002 33.9 25.7002 34.4625 24.6877C35.025 23.7127 35.4375 22.5877 35.625 21.3877C36.225 18.4627 35.8125 16.1752 34.3875 14.5627C32.925 12.9127 30.675 12.1252 27.5625 12.1252H17.2125L12.4125 36.8002ZM39.6 5.56269L34.8 30.2377H40.125L42.9 16.1002H47.175C48.525 16.1002 49.425 16.3252 49.8375 16.7752C50.25 17.2252 50.325 18.0502 50.1 19.2502L47.9625 30.2377H53.4L55.6125 18.7252C56.1 16.4002 55.725 14.7127 54.6 13.6252C53.475 12.6127 51.4125 12.1252 48.4125 12.1252H43.65L45 5.56269H39.6ZM67.5 15.9877C69.5625 15.9877 70.9125 16.3627 71.5875 17.1502C72.2625 17.9002 72.4125 19.2502 72.075 21.0127C71.7 23.0002 70.9875 24.2752 69.9375 25.1002C68.85 25.9252 67.2375 26.3377 65.0625 26.3377H61.875L63.75 15.9877H67.5ZM54.375 36.8002H59.775L61.05 30.2377H65.625C67.6875 30.2377 69.375 30.0127 70.6875 29.6002C72 29.1502 73.125 28.4377 74.25 27.4252C75.15 26.6002 75.9 25.7002 76.425 24.6877C76.9875 23.7127 77.4 22.5877 77.625 21.3877C78.1875 18.4627 77.775 16.1752 76.35 14.5627C75 12.9127 72.6375 12.1252 69.525 12.1252H59.2125L54.375 36.8002Z" fill="black"/>
</svg>
