<svg width="82" height="86" viewBox="0 0 82 86" fill="none" xmlns="http://www.w3.org/2000/svg">
<path d="M15.5175 13.3585C10.3481 20.7871 10.9914 30.4529 14.9409 38.3476L15.2299 38.9087L15.4148 39.2645L15.5301 39.4691L15.7361 39.8375C15.8585 40.0534 15.9843 40.2678 16.113 40.4837L16.3282 40.8381C16.4709 41.0673 16.6164 41.2951 16.7655 41.5222L16.9518 41.8098C17.1578 42.1171 17.3681 42.4229 17.5853 42.7246L17.6036 42.7478L17.7105 42.8919C17.8982 43.1506 18.0916 43.4066 18.2878 43.6604L18.505 43.9367C18.6801 44.1568 18.858 44.3748 19.0387 44.5935L19.2426 44.8367C19.4852 45.1222 19.7334 45.4077 19.9858 45.6861L20.0006 45.7016L20.0294 45.7332C20.2762 46.0025 20.5286 46.2662 20.7853 46.5299L21.0271 46.7738C21.2254 46.9735 21.4272 47.1697 21.6304 47.3652L21.8772 47.6C22.1493 47.856 22.4236 48.1077 22.7041 48.3524L22.7168 48.3636L22.8609 48.486C23.1077 48.7004 23.3587 48.9113 23.6118 49.1202L23.9226 49.3684C24.1293 49.5336 24.3382 49.6974 24.5484 49.8578L24.8838 50.1116C25.1158 50.2824 25.35 50.4505 25.5862 50.6157L25.8414 50.7971L25.9125 50.8478C26.1361 51.0024 26.366 51.1508 26.5945 51.2992L26.8898 51.496C27.2414 51.7175 27.5978 51.9376 27.9578 52.1499L28.2532 52.3166C28.5182 52.4692 28.7847 52.6196 29.0547 52.7659L29.4984 52.9951L30.0721 53.2932L30.2043 53.3572L30.4392 53.4704C30.7394 53.6138 31.0425 53.7552 31.3483 53.8916L31.5403 53.9774C31.8904 54.1306 32.2441 54.2776 32.6006 54.4189L32.8593 54.5202C33.1891 54.6481 33.5238 54.7726 33.8599 54.8907L33.9857 54.9343C34.3542 55.0637 34.7268 55.1825 35.1016 55.2999L35.3709 55.3801C35.752 55.4954 36.1296 55.6318 36.5226 55.7049C61.5208 60.2633 68.782 40.6834 68.782 40.6834C62.6831 48.6287 51.8585 50.724 41.602 48.391C41.2132 48.3031 40.8363 48.1815 40.4573 48.0704L40.1718 47.9832C39.802 47.87 39.4343 47.7512 39.0693 47.6246L38.9182 47.5705C38.5912 47.4552 38.2685 47.3342 37.9464 47.2098L37.6736 47.1029C37.3214 46.9637 36.9705 46.8181 36.6246 46.667L36.415 46.5735C36.1176 46.4392 35.823 46.3035 35.5298 46.1621L35.2739 46.0391C35.0439 45.9273 34.8168 45.8085 34.589 45.691L34.1327 45.4513C33.855 45.3036 33.5828 45.1489 33.3121 44.9914L33.0351 44.8374C32.6744 44.6244 32.3186 44.405 31.9664 44.1821L31.6781 43.9902C31.4228 43.8256 31.1683 43.6576 30.918 43.4846L30.6726 43.3124C30.4307 43.1422 30.191 42.9685 29.954 42.7935L29.6355 42.5523C29.4175 42.3856 29.201 42.2176 28.9872 42.0453L28.6982 41.8133C28.4254 41.5897 28.1561 41.3633 27.8903 41.132L27.8018 41.0581C27.5142 40.8057 27.2315 40.5463 26.9524 40.2861L26.7133 40.0555C26.5066 39.8593 26.3027 39.661 26.103 39.4571L25.8639 39.2181C25.6094 38.9579 25.3598 38.6942 25.1151 38.4263L25.0778 38.3863C24.8191 38.1036 24.566 37.8146 24.3185 37.5221L24.1195 37.2859C23.9346 37.0637 23.7518 36.8373 23.5732 36.6102L23.3728 36.3606C23.1569 36.0814 22.9474 35.803 22.7414 35.5203C17.0475 27.7529 15.0014 17.0401 19.5527 8.2426M31.5628 7.09932C27.825 12.4782 28.0275 19.6803 30.944 25.3686C31.4327 26.3221 31.9825 27.2481 32.5971 28.1284C33.1568 28.9321 33.7783 29.8869 34.5215 30.5317C34.7908 30.8284 35.0728 31.1181 35.3603 31.4021L35.5811 31.6208C35.8603 31.8915 36.1443 32.158 36.4375 32.4167L36.4727 32.447L36.4811 32.4554C36.806 32.7402 37.1414 33.0137 37.4817 33.2837L37.7088 33.4609C38.0505 33.7224 38.3986 33.9798 38.7557 34.2252L38.786 34.2484L39.2641 34.5627L39.4905 34.7124C39.7457 34.8763 40.0038 35.0352 40.2668 35.1878L40.3764 35.2524C40.6028 35.3825 40.8321 35.5105 41.062 35.6356L41.306 35.7622L41.7855 36.0111L41.8579 36.0442C42.1877 36.2059 42.5196 36.3627 42.8592 36.5103L43.08 36.6017C43.3514 36.7164 43.6249 36.8288 43.9005 36.9343L44.2521 37.0637C44.5024 37.1565 44.7527 37.2416 45.0058 37.326L45.3461 37.4349C45.7054 37.546 46.0612 37.6874 46.4353 37.7499C65.7361 40.9471 70.1918 26.0865 70.1918 26.0865C66.1755 31.8718 58.3968 34.6316 50.0964 32.4772C49.728 32.3802 49.3638 32.2747 49.0031 32.1615L48.6747 32.0553C48.4181 31.9731 48.1629 31.8845 47.9104 31.7924L47.5652 31.6637C47.2882 31.5568 47.0139 31.4464 46.7418 31.3311L46.5203 31.2376C46.1793 31.0892 45.8439 30.9324 45.5135 30.7693L45.0086 30.5127L44.7175 30.3629C44.5024 30.2462 44.2886 30.1253 44.0784 30.0015L43.9258 29.915C43.6643 29.7624 43.4069 29.6056 43.1524 29.4425L42.9189 29.2871L42.4183 28.9553C42.0625 28.7099 41.7159 28.4532 41.3749 28.1924L41.14 28.0067C37.507 25.1387 34.627 21.2181 33.258 16.7729C31.8229 12.1625 32.1323 6.98752 34.6186 2.78705M45.0579 2.42283C42.8543 5.66564 42.6377 9.69385 44.167 13.2756C45.7793 17.0774 49.0832 20.0593 52.9399 21.474L53.4194 21.6392L53.6303 21.7067C53.8575 21.7785 54.0832 21.8614 54.318 21.905C64.9753 23.9645 67.8658 16.4368 68.635 15.328C66.1031 18.9737 61.8478 19.8491 56.6264 18.5813C56.2143 18.4815 55.7608 18.3324 55.3636 18.1911C54.8538 18.009 54.3518 17.8023 53.8631 17.5681C52.9364 17.1224 52.0525 16.5824 51.2327 15.9636C46.5604 12.4185 43.6586 5.6565 46.7074 0.148926" fill="#0868AC"/>
<path d="M42.6587 66.7074H39.6873C39.5228 66.7074 39.359 66.8396 39.3238 67.0006L38.2691 71.8803L37.2144 76.76C37.18 76.921 37.0162 77.0532 36.8516 77.0532H34.7486C32.668 77.0532 32.9085 75.6139 33.3346 73.6423L33.3473 73.5826L33.3937 73.3337L33.4021 73.2873L33.497 72.781L33.599 72.2389L33.7073 71.687L34.1868 69.3441L34.667 67.0013C34.7001 66.8396 34.5918 66.7067 34.4273 66.7067H31.3778C31.2133 66.7067 31.0501 66.8389 31.0164 67.0006L30.3604 70.1113L29.7051 73.2226L29.7037 73.2268L29.6432 73.5165C28.888 76.9639 29.0877 80.2524 33.1926 80.3558L33.3121 80.3579H39.7548C39.9194 80.3579 40.0832 80.2257 40.1176 80.0647L41.507 73.5334L42.8964 67.0013C42.9309 66.8396 42.824 66.7081 42.6587 66.7074ZM10.8381 66.673H7.57562C7.41038 66.673 7.24585 66.8052 7.20929 66.9655L6.89991 68.3309L6.59054 69.6964C6.55468 69.8574 6.65945 69.9889 6.82468 69.9889H10.1125C10.2777 69.9889 10.4416 69.8567 10.4767 69.6957L10.7755 68.3309L11.0744 66.9662C11.1088 66.8052 11.0034 66.673 10.8381 66.673ZM9.89171 70.9227H6.60319C6.43866 70.9227 6.27343 71.0548 6.23687 71.2152L5.77491 73.2613L5.31366 75.3066L5.18499 75.8931L4.74132 77.9813L4.29835 80.0703C4.2639 80.2313 4.19288 80.4915 4.14015 80.6476C4.14015 80.6476 3.52562 82.4757 2.49273 82.4546L2.36335 82.4518L1.46968 82.4356C1.30515 82.4335 1.13921 82.5622 1.10054 82.7218L0.759523 84.1555L0.419211 85.5884C0.380539 85.7488 0.484601 85.8809 0.648429 85.8838C1.23413 85.8908 2.54616 85.9055 3.33999 85.9055C5.91976 85.9055 7.2803 84.4761 8.15148 80.3628L9.17171 75.642L10.1287 71.2145C10.1631 71.0548 10.0562 70.9227 9.89171 70.9227ZM70.4427 69.8159L70.3063 69.2527L70.172 68.6762L70.1038 68.3851C69.8366 67.3466 69.0526 66.7482 67.3497 66.7482L64.6989 66.7454L62.2576 66.7419H59.5105C59.346 66.7419 59.1829 66.8741 59.1484 67.0351L59.0268 67.6088L58.8833 68.2866L58.8433 68.4772L57.6065 74.2709L56.4323 79.7708C56.3971 79.9325 56.3859 80.1308 56.4055 80.2109C56.4252 80.2918 56.7423 80.3579 56.9069 80.3579H59.3847C59.5499 80.3579 59.7587 80.3284 59.8487 80.2918C59.9387 80.2552 60.0716 79.9311 60.1047 79.7701L60.5448 77.5911L60.9857 75.4114L60.9864 75.4079L61.0455 75.1175L61.5798 72.6144L62.0516 70.4038C62.0868 70.2427 62.2492 70.1113 62.4137 70.1106L70.2107 70.107C70.3759 70.1084 70.48 69.977 70.4427 69.8159ZM80.4798 64.7253L79.8794 64.7274H77.384C77.2187 64.7274 77.0071 64.8392 76.915 64.9756L71.3962 73.0602C71.3034 73.1966 71.1972 73.1769 71.1606 73.0166L70.7542 71.2355C70.7176 71.0745 70.5524 70.943 70.3872 70.943H66.8399C66.6747 70.943 66.5769 71.0724 66.6219 71.2306L68.2117 76.8001C68.2567 76.959 68.2602 77.2191 68.2194 77.3795L67.5269 80.0745C67.4854 80.2348 67.5866 80.3649 67.7519 80.3649H71.2583C71.4229 80.3649 71.5916 80.2341 71.6324 80.0745L72.3257 77.3795C72.3665 77.2184 72.4811 76.9808 72.5809 76.8486L81.5401 64.958C81.64 64.8259 81.5858 64.7183 81.4213 64.7197L80.4798 64.7253ZM52.2944 71.6996V71.6968C52.274 71.8754 52.1087 72.0069 51.9435 72.0069H47.4456C47.2895 72.0069 47.2108 71.9014 47.234 71.7706L47.2382 71.7601L47.2354 71.7615L47.2375 71.7467L47.2579 71.6701C47.6875 70.5282 48.5622 69.7787 50.2068 69.7787C52.0588 69.778 52.4202 70.6822 52.2944 71.6996ZM50.9746 66.5077C45.2012 66.5077 43.833 70.0121 43.0651 73.5495C42.298 77.1552 42.3634 80.5252 48.3386 80.5252H49.0628L49.2428 80.5245H49.285L50.0022 80.5224H50.0148C51.5926 80.5161 53.1754 80.5041 53.8159 80.4992C53.9798 80.4964 54.1401 80.3649 54.1738 80.2039L54.4157 79.022L54.4628 78.792L54.7511 77.3816C54.7841 77.2205 54.6766 77.0877 54.5113 77.0877H49.1401C47.0034 77.0877 46.3691 76.5202 46.6033 74.851H55.1891L55.1884 74.8517L55.194 74.851C55.3305 74.8489 55.457 74.7547 55.5069 74.6295L55.5273 74.555L55.5266 74.5557C56.8014 69.747 56.4358 66.5084 50.9746 66.5077ZM23.6863 71.6813L23.6048 71.9689L22.9565 74.2674L22.3082 76.5645C22.2639 76.7241 22.0916 76.8535 21.9264 76.8535H18.4951C15.8922 76.8535 15.258 74.8173 15.8922 71.8149C16.5257 68.7437 17.7681 66.8347 20.3303 66.6413C23.8319 66.377 24.5322 68.8393 23.6863 71.6813ZM26.0404 76.677C26.0404 76.677 27.6583 72.748 28.0253 70.4797C28.5266 67.4429 27.0058 63.0371 21.1319 63.0371C15.2917 63.0371 12.7548 67.2425 11.7873 71.8149C10.8198 76.4204 12.0876 80.4584 17.8947 80.4254L22.4762 80.4085L26.7576 80.3931C26.9221 80.3916 27.0909 80.2609 27.133 80.102L27.8791 77.2571C27.9205 77.0968 27.82 76.966 27.6548 76.9646L26.9397 76.9604L26.2246 76.9562C26.0847 76.9555 26.0045 76.8641 26.0214 76.7438L26.0404 76.677ZM54.9529 74.0466C54.9529 74.1556 54.865 74.2442 54.756 74.2442C54.6477 74.2442 54.5591 74.1556 54.5591 74.0466C54.5591 73.9384 54.647 73.8505 54.756 73.8505C54.865 73.8505 54.9529 73.9384 54.9529 74.0466Z" fill="#131B28"/>
</svg>
