<svg width="90" height="90" viewBox="0 0 90 90" fill="none" xmlns="http://www.w3.org/2000/svg">
<path fill-rule="evenodd" clip-rule="evenodd" d="M45.7896 48.934L32.2861 88.1663C36.3192 89.3531 40.583 90 44.9993 90C50.239 90 55.2649 89.0944 59.9428 87.4491C59.8247 87.255 59.7122 87.0525 59.6222 86.8303L45.7896 48.934ZM84.4875 23.4098C84.6816 24.8442 84.7913 26.3798 84.7913 28.0364C84.7913 32.6011 83.9362 37.7339 81.3684 44.1548L67.623 83.8934C81.0028 76.0943 90 61.598 90 44.9986C90 37.1742 88.0003 29.8195 84.4875 23.4098ZM75.3778 42.7282C75.3778 37.1651 73.3781 33.3148 71.6681 30.3195C69.3872 26.6098 67.2469 23.471 67.2469 19.7641C67.2469 15.627 70.3828 11.7766 74.8041 11.7766C75.0038 11.7766 75.1922 11.802 75.3863 11.8132C67.3819 4.4775 56.7134 0 44.9993 0C29.2767 0 15.447 8.06625 7.40039 20.2809C8.45789 20.3147 9.45352 20.3344 10.2973 20.3344C15.0026 20.3344 22.2905 19.7634 22.2905 19.7634C24.7148 19.62 25.0017 23.1863 22.5773 23.4703C22.5773 23.4703 20.1389 23.7572 17.4277 23.9006L33.814 72.642L43.6634 43.1072L36.6539 23.9006C34.2295 23.7572 31.9317 23.4703 31.9317 23.4703C29.5073 23.3269 29.7914 19.62 32.2186 19.7634C32.2186 19.7634 39.6492 20.3344 44.0712 20.3344C48.7765 20.3344 56.0644 19.7634 56.0644 19.7634C58.4916 19.62 58.7756 23.1863 56.3512 23.4703C56.3512 23.4703 53.91 23.7572 51.2016 23.9006L67.4641 72.2707L71.9557 57.2745C73.8956 51.0476 75.3778 46.5785 75.3778 42.7282ZM0 44.9979C0 62.8095 10.35 78.203 25.361 85.4958L3.89531 26.685C1.40062 32.2798 0 38.4729 0 44.9979Z" fill="#00759D"/>
</svg>
