<svg width="90" height="90" viewBox="0 0 90 90" fill="none" xmlns="http://www.w3.org/2000/svg">
<path d="M76.5 0H13.5C6.04416 0 0 6.04416 0 13.5V76.5C0 83.9558 6.04416 90 13.5 90H76.5C83.9558 90 90 83.9558 90 76.5V13.5C90 6.04416 83.9558 0 76.5 0Z" fill="#F7DF1E"/>
<path d="M56.9531 65.0391C58.7109 68.0273 61.1719 70.1367 65.2148 70.1367C68.7305 70.1367 71.0156 68.3789 71.0156 65.918C71.0156 63.1055 68.7305 62.0508 64.8633 60.293L62.7539 59.4141C56.6016 56.7773 52.5586 53.6133 52.5586 46.7578C52.5586 40.4297 57.3047 35.5078 64.8633 35.5078C70.3125 35.5078 74.1797 37.4414 76.8164 42.3633L70.3125 46.582C68.9062 43.9453 67.3242 42.8906 64.8633 42.8906C62.4023 42.8906 60.8203 44.4727 60.8203 46.582C60.8203 49.043 62.4023 50.0977 66.0938 51.6797L68.2031 52.5586C75.4102 55.7227 79.4531 58.7109 79.4531 65.918C79.4531 73.4766 73.4766 77.6953 65.3906 77.6953C57.4805 77.6953 52.3828 74.0039 49.9219 69.082L56.9531 65.0391ZM27.0703 65.7422C28.4766 68.0273 29.5312 70.1367 32.5195 70.1367C35.332 70.1367 37.0898 69.082 37.0898 64.8633V35.6836H45.5273V64.5117C45.5273 73.3008 40.4297 77.168 32.8711 77.168C26.0156 77.168 22.1484 73.6523 20.2148 69.4336L27.0703 65.7422Z" fill="black"/>
</svg>
