<svg width="40" height="88" viewBox="0 0 40 88" fill="none" xmlns="http://www.w3.org/2000/svg">
<path fill-rule="evenodd" clip-rule="evenodd" d="M0.991054 23.9323C1.60769 30.4236 2.21941 36.8782 2.8452 43.4778C3.86543 41.7235 4.60371 40.0409 5.71746 38.6628C6.75457 37.3789 8.06168 36.1941 9.4841 35.3736C11.3411 34.302 13.776 35.311 14.3779 37.2115C14.5396 37.7213 14.1536 38.4047 14.0186 39.0087C13.5643 38.769 12.9786 38.6368 12.6819 38.2697C11.4212 36.7109 10.6618 36.5267 9.26754 37.8739C6.66668 40.3882 5.20418 43.5382 4.6459 47.0785C4.53832 47.7633 4.96652 48.5318 5.14723 49.2617C5.85809 49.017 6.68355 48.927 7.25801 48.4995C9.12551 47.1094 10.2829 45.2187 10.9213 42.9589C11.0598 42.4695 11.8107 42.1538 12.2804 41.7579C12.5054 42.2206 13.0187 42.7655 12.9111 43.1318C11.9218 46.535 10.8482 49.9163 9.72176 53.2772C9.60785 53.6175 8.98277 53.787 8.59394 54.0359C8.43715 53.5887 8.10738 53.1204 8.16012 52.6993C8.27824 51.7444 8.58551 50.8128 8.79996 49.9381L3.70934 52.2816C3.9941 55.5314 4.28941 59.1772 4.63957 62.8179C4.90816 65.5981 5.36309 66.3181 8.10105 66.8454C11.2961 67.4607 14.5508 67.8537 17.7986 68.0928C22.5974 68.4464 27.354 68.0091 32.0228 66.754C33.7609 66.2872 34.4542 65.1439 34.5786 63.4374C34.6925 61.8659 34.9471 60.3043 35.1236 58.737C35.4702 55.6496 35.807 52.5614 36.1614 49.3447C34.9893 50.0872 34.0675 50.9182 32.9896 51.2705C32.2049 51.5271 31.2149 51.1517 30.3156 51.0575C30.4879 50.232 30.4773 49.3018 30.8753 48.6057C31.5236 47.468 32.439 46.4815 33.2406 45.4311L32.8953 45.0155C32.3209 45.3551 31.6072 45.578 31.1987 46.0597C30.3676 47.0398 29.5541 48.0889 28.9979 49.2378C28.067 51.1608 27.3575 53.1907 26.5243 55.1623C26.1622 56.0173 25.85 57.3251 24.6371 56.8259C23.3399 56.2908 24.2525 55.1482 24.557 54.3354C25.0414 53.0389 25.6813 51.8 26.1144 50.8465C24.8868 50.9928 23.6422 51.1693 22.3921 51.2782C21.8633 51.3232 21.2347 51.0336 20.8023 51.229C19.3644 51.8787 18.4532 51.6179 18.1543 50.026C17.4885 50.4584 16.9246 51.0441 16.2601 51.2016C15.4536 51.3936 14.3596 51.5194 13.7689 51.1165C13.2957 50.7938 13.1235 49.5809 13.2852 48.8693C13.6065 47.4547 14.207 46.0948 14.7772 44.7497C15.1302 43.9165 15.4853 42.5862 16.6764 43.1656C17.8534 43.7372 16.7846 44.7019 16.5132 45.4761C16.0921 46.6728 15.6632 47.8674 15.2385 49.0627L15.9135 49.4705C16.5561 48.9122 17.357 48.4573 17.807 47.7725C18.5439 46.6531 18.9889 45.3453 19.6864 44.1964C19.9754 43.7204 20.5977 43.4475 21.0695 43.0826C21.1651 43.6887 21.3943 44.3117 21.3184 44.8967C21.2432 45.488 20.8276 46.0287 20.6286 46.6137C20.3298 47.4898 20.0886 48.3856 19.7849 49.4044C21.2214 49.4593 21.8366 48.8546 22.2423 47.7879C23.5262 44.4179 24.8242 41.0513 26.2353 37.7332C26.4765 37.1651 27.2964 36.8445 27.8497 36.4086C27.9137 37.0934 28.2189 37.8697 28.0016 38.4469C26.845 41.5048 25.5463 44.5079 24.3257 47.5418C24.1196 48.053 24.0536 48.6204 23.9235 49.1618C26.0743 48.195 27.8694 47.1263 28.5247 44.8404C28.685 44.285 29.3418 43.8722 29.77 43.3934L30.7656 44.4481C31.0679 44.1936 31.345 43.9039 31.6733 43.6922C32.7069 43.0264 33.82 42.4393 34.9098 43.4707C36.0376 44.5374 35.184 45.5766 34.5948 46.4991C33.9536 47.5053 33.1682 48.4186 32.4453 49.3721C34.071 48.3244 36.2907 47.8547 36.5861 45.5907C37.3061 40.0606 37.9389 34.5193 38.5808 28.9793C38.7714 27.3397 38.8733 25.6894 39.0217 23.9808C26.2178 27.0809 13.6888 27.0999 0.991054 23.9323ZM6.48668 67.0824C7.10332 68.7115 8.03988 70.3118 8.28527 72.012C8.80348 75.631 8.93496 79.3048 9.30199 82.9484C9.35543 83.4793 9.69926 84.2084 10.1282 84.4418C16.4422 87.8731 22.8175 88.4679 29.2595 84.7154C30.2207 84.1557 30.3986 83.4167 30.523 82.3775C31.1256 77.3283 29.784 71.9726 33.0121 67.2181C23.9727 69.4604 15.1506 69.53 6.48668 67.0824ZM28.2772 24.8386C31.3443 24.5426 34.374 23.8226 37.4073 23.2278C37.9789 23.116 38.4866 22.6807 39.0238 22.3946C38.3157 21.7723 37.7033 21.4728 37.0635 21.3975C33.8783 21.0214 30.6819 20.7317 27.4989 20.3372C27.0179 20.2775 26.1594 19.684 26.1953 19.5757C27.1241 16.7773 27.0784 13.6097 29.1864 11.2514C31.8505 8.2702 34.5421 5.31497 37.2132 2.35832C35.2262 0.220825 35.1995 0.218012 33.3988 2.08903C32.3807 3.14653 31.4504 4.30387 30.3458 5.26153C26.2586 8.80387 23.3877 12.9994 22.828 18.5309C22.6993 19.8 22.0025 20.2585 20.6701 20.2782C16.2714 20.3422 11.8677 20.4631 7.47879 20.7521C5.30402 20.8948 3.15598 21.4531 0.995273 21.8229L0.975586 22.6308C2.3277 23.0478 3.65379 23.5955 5.03473 23.8606C12.7297 25.3357 20.4972 25.5889 28.2772 24.8386ZM25.8191 22.9065C24.0775 24.3127 22.6382 24.3127 21.2481 22.9065H25.8191Z" fill="#EB4A4B"/>
</svg>
