<svg width="90" height="67" viewBox="0 0 90 67" fill="none" xmlns="http://www.w3.org/2000/svg">
<path fill-rule="evenodd" clip-rule="evenodd" d="M0.856934 28.4847C0.856934 28.979 1.00248 29.3052 1.08404 29.6223C1.61561 31.6846 2.75818 33.4544 4.11381 35.0687C6.04459 37.3694 8.4092 39.2214 10.8315 40.963C12.9324 42.4734 15.0762 43.9499 17.1856 45.449C17.5477 45.7063 17.8901 46.0023 18.2832 46.318C17.945 46.5009 17.6637 46.6619 17.3712 46.8102C14.5876 48.2221 11.9094 49.8048 9.44068 51.7223C7.95287 52.8782 6.51428 54.1066 5.49826 55.7118C3.8635 58.2937 3.28482 61.0443 4.50334 63.9813C4.85912 64.8391 5.40193 65.5802 6.16764 66.1279C6.41584 66.3051 6.69428 66.4809 6.98467 66.5498C7.72857 66.7248 8.48654 66.8395 9.23959 66.978L11.3722 66.9766C13.7304 66.7663 15.8771 65.9584 17.817 64.6197C20.8489 62.5272 22.8915 59.7217 23.7697 56.121C24.4081 53.504 24.4341 50.8841 23.6818 48.2791C23.6122 48.0372 23.5243 47.8002 23.4329 47.5661C23.3415 47.332 23.2339 47.1041 23.1073 46.8123L27.942 44.0322L28.0144 44.0941C27.9265 44.3816 27.833 44.6685 27.7536 44.9589C27.1791 47.057 26.7973 49.1917 26.9344 51.3693C27.0807 53.6896 27.7283 55.8616 29.0867 57.8001C30.185 59.368 32.802 59.4264 33.9692 57.8528C34.3833 57.2938 34.7848 56.7095 35.0865 56.0859C35.8747 54.4581 36.6045 52.8016 37.3576 51.1562L37.489 50.8553C37.4349 51.6344 37.3716 52.3185 37.3428 53.0034C37.2978 54.0728 37.3604 55.1359 37.726 56.1534C38.0389 57.0238 38.5712 57.6742 39.5682 57.7888C40.2502 57.8669 40.7937 57.5547 41.2951 57.1588C42.0783 56.5408 42.7147 55.7772 43.1872 54.9095C44.5238 52.4549 45.8963 50.0151 47.1078 47.4986C48.4184 44.7768 49.5645 41.9755 50.7816 39.2073L50.9827 38.7166C51.2703 39.8465 51.4707 40.9532 51.8398 42.0009C52.2687 43.2166 52.7996 44.4034 53.3776 45.5573C53.6511 46.1022 53.6194 46.4559 53.2404 46.9129C51.6542 48.8254 50.0954 50.7611 48.5351 52.6947C48.1899 53.1215 47.8461 53.556 47.5585 54.0222C47.3848 54.3055 47.2695 54.6508 47.221 54.9812C47.1275 55.6127 47.5177 56.2216 48.1934 56.3671C48.8108 56.5 49.4682 56.5492 50.0975 56.5028C52.2751 56.3425 54.2522 55.5782 56.0002 54.283C58.265 52.6054 58.992 50.316 58.4436 47.6027C58.2952 46.8665 58.0329 46.1507 57.7777 45.4413C57.6631 45.1213 57.6554 44.897 57.8642 44.5989C59.6747 42.0135 61.2216 39.2706 62.6602 36.4645C62.7172 36.3541 62.7755 36.2437 62.8754 36.1255C63.3415 38.5513 64.0433 40.8892 65.3004 43.0105C64.6592 43.6286 64.0243 44.189 63.4498 44.8063C62.1849 46.1662 61.088 47.6427 60.5157 49.4434C60.2696 50.2197 60.0804 51.0086 60.1901 51.8376C60.3603 53.125 61.415 53.9617 62.6813 53.6685C65.3912 53.0413 67.7305 51.7645 69.4397 49.5025C70.5901 47.9795 70.6948 46.2808 70.2132 44.5012C70.081 44.0174 69.9242 43.5414 69.7554 42.9866C70.4241 42.7792 71.0759 42.5303 71.7502 42.3763C75.2511 41.5776 78.714 41.7168 82.0876 42.981C84.057 43.7193 85.6482 44.9547 86.5918 46.8981C87.7442 49.274 87.1072 51.5282 84.8677 53.0301C84.6589 53.17 84.4198 53.2804 84.2469 53.4555C84.1407 53.563 84.0767 53.7782 84.1027 53.9266C84.1175 54.013 84.346 54.1213 84.4775 54.1199C85.2137 54.1143 85.8106 53.7283 86.3837 53.3317C87.8194 52.3382 88.8671 51.0016 89.0928 49.2416L89.1371 49.1095L89.0829 47.9634C89.0611 47.8973 89.0991 47.8319 89.0942 47.782C88.789 45.2191 87.4201 43.2313 85.4288 41.6732C83.1226 39.8697 80.3994 39.1272 77.5194 39.0098C75.1723 38.9141 72.8654 39.2629 70.6533 40.0666C70.0226 40.2951 69.3976 40.5658 68.7633 40.821C68.6783 40.667 68.5869 40.5194 68.5116 40.3668C67.8605 39.0337 67.0716 37.7596 66.8972 36.231C66.7735 35.1454 66.6216 34.0612 66.8797 32.9875C67.1279 31.9546 67.4513 30.9393 67.7558 29.9205C67.9126 29.3959 67.8022 29.102 67.3015 28.8658C67.1272 28.7835 66.9373 28.7118 66.7489 28.6844C65.5184 28.5058 64.3048 28.6077 63.113 28.9544C62.6912 29.0774 62.3846 29.3137 62.2911 29.7805C62.2376 30.0484 62.1287 30.3051 62.0527 30.5695C61.7412 31.6684 61.5204 32.7885 61.017 33.8355C59.7556 36.4616 58.3156 38.9887 56.8419 41.4974C56.6822 41.7681 56.5142 42.0339 56.3131 42.3623C55.7956 41.2795 55.2437 40.3077 55.0763 39.1687C54.8872 37.8805 54.7381 36.5945 55.0587 35.3162C55.2971 34.3628 55.6086 33.427 55.8955 32.4862C56.0312 32.039 55.9686 31.8041 55.5636 31.5686C55.359 31.4498 55.1276 31.3443 54.897 31.3098C53.6208 31.1207 52.3637 31.2198 51.1325 31.6178C50.7507 31.7416 50.5503 31.9884 50.4336 32.3821C50.0904 33.5437 49.7979 34.7334 49.3163 35.838C47.3658 40.3098 45.3591 44.7585 43.3545 49.2065C42.9361 50.1353 42.4461 51.0318 41.9743 51.936C41.8547 52.1652 41.6804 52.367 41.5313 52.5822C41.4118 52.4409 41.3654 52.3438 41.3661 52.2468C41.3696 51.6752 41.3014 51.0866 41.4104 50.534C41.7401 48.862 42.1198 47.1991 42.5199 45.5425C42.8504 44.1742 43.235 42.8186 43.6013 41.4595C43.7244 41.0045 43.7265 40.5791 43.3995 40.1966C42.8504 39.5561 41.7029 39.4155 41.0222 39.9091L40.7213 40.0792L40.7797 39.5941C40.9231 38.5541 40.9519 37.5177 40.6665 36.4933C40.3107 35.2164 39.3994 34.4816 38.0747 34.5224C37.4574 34.5414 36.8091 34.6469 36.2375 34.8719C33.8335 35.8141 31.985 37.4826 30.4114 39.49C30.2687 39.6721 30.0802 39.838 29.8791 39.9498C27.845 41.0777 25.8045 42.1914 23.7647 43.3094L21.4944 44.5532C20.8854 43.9724 20.3321 43.3698 19.7042 42.8587C17.7868 41.2949 15.8384 39.7698 13.9076 38.2237C12.1962 36.8533 10.5383 35.4259 9.26982 33.6112C8.32623 32.2612 7.71803 30.7839 7.65967 29.1147C7.58584 26.9877 8.18912 25.0443 9.27193 23.2352C10.6571 20.9205 12.5464 19.0628 14.6234 17.3802C16.8207 15.6013 19.1972 14.091 21.6603 12.7122C25.1063 10.7835 28.6508 9.07633 32.4512 7.94922C36.3479 6.79328 40.3015 6.13164 44.3797 6.59289C45.9828 6.7743 47.5395 7.14133 48.969 7.92531C50.0637 8.52508 50.9616 9.31047 51.3793 10.5381C51.7913 11.7461 51.7787 12.9702 51.4932 14.1972C50.9131 16.682 49.5526 18.7302 47.8405 20.5605C45.0322 23.5607 41.6065 25.6033 37.7499 26.9526C35.5245 27.7309 33.2351 28.2196 30.8839 28.4172C28.9651 28.5782 27.0863 28.408 25.2694 27.7408C24.0664 27.2985 23.0187 26.6221 22.1764 25.6405C22.0259 25.4648 21.8333 25.2742 21.5527 25.4388C21.2778 25.6005 21.2293 25.862 21.3214 26.1271C21.4754 26.5673 21.6174 27.0257 21.8572 27.4195C22.4597 28.4073 23.3387 29.1238 24.3062 29.7384C26.1645 30.9203 28.2415 31.3176 30.3952 31.4097C33.6633 31.551 36.852 31.063 39.9957 30.1863C44.4837 28.9347 48.3861 26.7241 51.5157 23.2366C54.1215 20.3327 55.9826 17.0554 56.3813 13.0982C56.5761 11.1667 56.3687 9.27461 55.4644 7.51258C54.4836 5.60359 52.924 4.18398 51.0594 3.20594C48.3439 1.78211 45.4133 0.953125 42.3884 0.953125H39.3579C35.6947 0.953125 32.153 2.00289 28.7105 3.25516C26.1047 4.20367 23.5496 5.32305 21.069 6.56195C15.6669 9.26125 10.636 12.516 6.50373 16.9914C4.44498 19.221 2.70193 21.6812 1.69928 24.5781C1.40607 25.4261 1.12764 26.3352 0.918105 27.212M20.4924 52.5337C20.2583 55.6689 18.8372 58.2107 16.5148 60.2695C15.2084 61.4268 13.7101 62.2509 11.9649 62.5406C11.3321 62.6453 10.6845 62.6706 10.0707 62.4084C9.19529 62.0343 8.99912 61.2573 8.98225 60.4298C8.95623 59.1107 9.41818 57.9182 10.0517 56.7834C10.8786 55.304 12.0908 54.1762 13.3852 53.1229C15.4243 51.4628 17.6363 50.058 19.9018 48.7319L20.0726 48.6616C20.4228 49.9553 20.5894 51.2329 20.4924 52.5337ZM38.1816 38.9078C38.0164 39.9091 37.8097 40.911 37.5172 41.8813C36.5061 45.2402 35.2074 48.4949 33.8033 51.7061C33.5438 52.3002 33.1662 52.8423 32.8379 53.4055C32.7872 53.4927 32.712 53.568 32.6389 53.6404C32.2325 54.0419 31.8472 54.0208 31.6419 53.4955C31.4028 52.8852 31.2558 52.232 31.1293 51.5859C31.0442 51.152 31.0646 50.6964 31.0379 50.252C31.0653 47.0922 32.0293 44.2206 33.6647 41.5473C34.339 40.4448 35.0731 39.3944 36.1946 38.6969C36.5391 38.4824 36.9258 38.3102 37.3161 38.2005C37.9137 38.0324 38.2808 38.3088 38.1816 38.9078ZM50.2501 54.2837L54.5876 49.2191C54.7683 51.1 51.5712 54.8547 50.2501 54.2837ZM64.1037 50.8757C63.7972 51.0515 63.4632 51.178 63.1489 51.3405C62.8613 51.4895 62.7664 51.3391 62.7579 51.0916C62.7523 50.9235 62.7769 50.7477 62.8233 50.5846C63.409 48.5188 64.4869 46.7554 66.0908 45.321L66.2033 45.2634C66.9661 47.3973 66.0844 49.7409 64.1037 50.8757Z" fill="#CB6699"/>
</svg>
