<svg width="78" height="47" viewBox="0 0 78 47" fill="none" xmlns="http://www.w3.org/2000/svg">
<path d="M0 42.4737H2.96499V30.7693L7.55508 40.9765C8.09648 42.2069 8.83828 42.649 10.292 42.649C11.7457 42.649 12.4585 42.2118 13.0008 40.9765L17.5913 30.7693V42.4781H20.5567V30.7886C20.5567 29.6482 20.0997 29.0967 19.1593 28.812C16.9071 28.1088 15.3958 28.717 14.712 30.2375L10.2076 40.3111L5.84473 30.2331C5.18906 28.7126 3.64966 28.1044 1.39746 28.8076C0.456152 29.0928 0 29.6443 0 30.7842V42.4737ZM23.0212 32.9437H25.9853V39.3949C25.9576 39.7456 26.0978 40.5682 27.722 40.5933C28.5508 40.6064 34.1178 40.5933 34.1697 40.5933V32.9116H37.1404C37.1536 32.9116 37.1373 43.3855 37.1377 43.4304C37.154 46.0135 33.9324 46.5746 32.4479 46.6182H23.0858V44.623L32.4646 44.6226C34.3727 44.4205 34.1477 43.4725 34.1477 43.1531V42.3752H27.8459C24.9139 42.3489 23.0471 41.0687 23.0238 39.5966C23.0216 39.4647 23.0871 33.007 23.0221 32.9433L23.0212 32.9437Z" fill="#00618A"/>
<path d="M39.4258 42.4736H47.9503C48.9478 42.4736 49.9177 42.2648 50.6881 41.9032C51.9713 41.3143 52.5984 40.5158 52.5984 39.4704V37.3039C52.5984 36.4482 51.8856 35.6502 50.489 35.118C49.7477 34.8324 48.8353 34.6808 47.9516 34.6808H44.3591C43.162 34.6808 42.5916 34.3195 42.4492 33.5215C42.4207 33.4266 42.4207 33.3457 42.4207 33.2552V31.9061C42.4207 31.83 42.4207 31.7536 42.4492 31.6586C42.5916 31.0504 42.9054 30.8791 43.9601 30.7797C44.0457 30.7797 44.1596 30.7604 44.2457 30.7604H52.7131V28.7842H44.3881C43.1906 28.7842 42.5635 28.8602 41.9931 29.0312C40.2238 29.5827 39.4539 30.4616 39.4539 31.9821V33.7118C39.4539 35.0424 40.9656 36.1828 43.5021 36.4487C43.7878 36.4676 44.0726 36.4865 44.3573 36.4865H47.4366C47.5508 36.4865 47.6651 36.4865 47.7503 36.5058C48.6908 36.5818 49.0907 36.7528 49.3754 37.0947C49.5512 37.2705 49.604 37.4375 49.604 37.622V39.3517C49.604 39.5609 49.4616 39.8272 49.1764 40.0548C48.9197 40.2833 48.4921 40.435 47.9217 40.4732C47.8075 40.4732 47.7222 40.4921 47.6084 40.4921H39.4258V42.4687V42.4736ZM71.0945 39.0335C71.0945 41.0673 72.6054 42.2077 75.6561 42.4358C75.9406 42.4578 76.2258 42.4704 76.5112 42.4736H84.2377V40.4969H76.4541C74.7152 40.4969 74.0591 40.0597 74.0591 39.0142V28.7881H71.0941V39.0327L71.0945 39.0335ZM54.4898 39.1364V32.0897C54.4898 30.2994 55.7466 29.2135 58.2322 28.8708C58.4972 28.8329 58.7647 28.8138 59.0324 28.8136H64.6605C64.9377 28.8138 65.2147 28.8329 65.4893 28.8708C67.9748 29.2135 69.2317 30.299 69.2317 32.0897V39.1364C69.2317 40.5888 68.6978 41.3662 67.4673 41.8729L70.3879 44.5096H66.9452L64.5823 42.3765L62.2035 42.5272H59.0324C58.4897 42.5272 57.9184 42.4507 57.2895 42.2793C55.3999 41.7652 54.4898 40.7747 54.4898 39.1364ZM57.6903 38.9606C57.6903 39.056 57.7189 39.1509 57.7475 39.2656C57.9232 40.0847 58.6901 40.5417 59.8568 40.5417H62.5507L60.0766 38.308H63.5192L65.6726 40.2561C66.0703 40.0443 66.3317 39.72 66.4196 39.3038C66.4482 39.2089 66.4482 39.1135 66.4482 39.0182V32.2616C66.4482 32.1855 66.4482 32.0858 66.4196 31.9948C66.2438 31.2333 65.4766 30.7951 64.334 30.7951H59.8621C58.5437 30.7951 57.6912 31.3664 57.6912 32.2616V38.9659L57.6903 38.9606Z" fill="#E48E00"/>
<path d="M86.8466 25.5094C85.0242 25.4602 83.6316 25.6293 82.4416 26.1312C82.1032 26.274 81.564 26.2775 81.5086 26.7016C81.6945 26.8963 81.7239 27.1872 81.8712 27.4267C82.1555 27.8868 82.6358 28.5034 83.0634 28.8259C83.531 29.1788 84.0126 29.5567 84.5149 29.863C85.407 30.4071 86.4028 30.7178 87.2615 31.2623C87.7677 31.5831 88.2705 31.9873 88.7644 32.3503C89.0083 32.5296 89.1731 32.8082 89.4895 32.9203V32.8685C89.3225 32.6562 89.2799 32.3644 89.127 32.1434L88.4533 31.4697C87.7941 30.5908 86.9583 29.8274 86.0693 29.1889C85.3604 28.68 83.7735 27.9927 83.4778 27.1674L83.4259 27.1156C83.9287 27.0584 84.5171 26.8769 84.9816 26.753C85.7608 26.5443 86.4573 26.5979 87.2624 26.3905L88.3509 26.0793V25.8719C87.944 25.4544 87.6539 24.902 87.2105 24.5246C86.0504 23.5358 84.7834 22.5492 83.4796 21.7252C82.7562 21.2682 81.8624 20.972 81.0955 20.5849C80.8376 20.4548 80.3845 20.3871 80.2144 20.17C79.8119 19.6567 79.5926 19.0055 79.2819 18.4122C78.6315 17.1598 77.9925 15.7913 77.416 14.4734C77.0227 13.5747 76.7656 12.6883 76.276 11.8819C73.9228 8.01298 71.3893 5.67773 67.4659 3.3829C66.6309 2.89511 65.6259 2.70175 64.5633 2.44995L62.8529 2.34623C62.5049 2.20121 62.1428 1.77495 61.8158 1.5684C60.5159 0.746625 57.1818 -1.03887 56.219 1.30473C55.6112 2.78701 57.1273 4.23325 57.67 4.98471C58.0506 5.51205 58.5384 6.10224 58.81 6.69506C58.9888 7.08442 59.02 7.47509 59.173 7.8873C59.5496 8.89804 59.8774 10.0068 60.3648 10.945C60.6109 11.4196 60.8824 11.9197 61.194 12.3442C61.3852 12.6048 61.7126 12.7195 61.764 13.1221C61.4441 13.5703 61.4256 14.2646 61.2454 14.8324C60.4355 17.3865 60.7409 20.5607 61.9191 22.4512C62.2808 23.0313 63.132 24.2758 64.3031 23.7986C65.3271 23.3811 65.0942 22.0891 65.3917 20.9483C65.4576 20.689 65.4172 20.5 65.5472 20.3265V20.3783L66.4802 22.2438C67.1701 23.3556 68.3962 24.518 69.4342 25.3024C69.9725 25.7089 70.401 26.412 71.0927 26.6498V26.5979H71.0408C70.9059 26.387 70.695 26.3004 70.5223 26.1321C70.1167 25.7344 69.6653 25.24 69.33 24.7847C68.3852 23.5024 67.5511 22.0997 66.7909 20.6385C66.4279 19.9411 66.1119 19.1716 65.8065 18.4619C65.6887 18.1881 65.6901 17.7746 65.444 17.6326C65.1087 18.1529 64.6147 18.573 64.3554 19.1874C63.9406 20.1691 63.887 21.3662 63.7336 22.6081C63.6426 22.6406 63.6831 22.6182 63.6299 22.66C62.9083 22.4859 62.6543 21.7428 62.3862 21.1052C61.7077 19.4924 61.582 16.897 62.1788 15.0416C62.3326 14.5617 63.0314 13.0491 62.7488 12.6057C62.6139 12.1632 62.1687 11.9026 61.9195 11.5686C61.6119 11.1511 61.3034 10.6 61.0903 10.1175C60.5348 8.86069 60.2756 7.45004 59.6911 6.17871C59.4116 5.57138 58.9396 4.95703 58.5511 4.42089C58.1214 3.82324 57.6402 3.38203 57.3075 2.66308C57.1888 2.406 57.028 1.99511 57.2038 1.73012C57.2206 1.65399 57.2588 1.58424 57.3139 1.52911C57.369 1.47398 57.4388 1.43577 57.5149 1.41899C57.8155 1.1874 58.6531 1.49589 58.966 1.62641C59.7965 1.97182 60.4909 2.30053 61.1949 2.76679C61.5333 2.98652 61.8747 3.42421 62.283 3.54462H62.7488C63.4783 3.71249 64.2957 3.59736 64.9768 3.8039C66.1818 4.16996 67.2611 4.73994 68.242 5.35869C71.2294 7.24482 73.6714 9.92988 75.3422 13.137C75.6111 13.6525 75.7272 14.1451 75.964 14.6918C76.4417 15.7904 77.0433 16.9299 77.5188 18.0083C77.9934 19.085 78.4548 20.1705 79.1255 21.0661C79.4779 21.5363 80.8393 21.7894 81.4576 22.0504C81.8914 22.2337 82.6015 22.4248 83.0124 22.6723C83.7968 23.1456 84.5571 23.7094 85.2932 24.2279C85.661 24.4872 86.7917 25.0554 86.848 25.5234L86.8466 25.5094Z" fill="#00618A"/>
<path fill-rule="evenodd" clip-rule="evenodd" d="M63.6815 5.76406C63.3014 5.75703 63.0329 5.80537 62.7485 5.86777V5.91963H62.8004C62.9814 6.29229 63.3014 6.53179 63.5255 6.85259L64.044 7.94067L64.0959 7.88882C64.4167 7.6625 64.5639 7.30083 64.5617 6.74844C64.433 6.61309 64.4141 6.44346 64.3024 6.28174C64.1543 6.06641 63.863 5.94424 63.6806 5.76318L63.6815 5.76406Z" fill="#00618A"/>
</svg>
