<svg width="14" height="14" viewBox="0 0 14 14" fill="none" xmlns="http://www.w3.org/2000/svg">
<path d="M5.75 -0.000976562C5.69016 -0.000933124 5.63231 0.0205742 5.58698 0.0596386C5.54164 0.098703 5.51182 0.152733 5.50293 0.211914L5.26758 1.79785C5.02064 1.88025 4.78065 1.97925 4.54785 2.0957L3.26074 1.14062C3.21251 1.10484 3.153 1.08761 3.09311 1.0921C3.03322 1.09658 2.97694 1.12247 2.93457 1.16504L1.16602 2.93359C1.12371 2.97591 1.09797 3.03199 1.09349 3.09166C1.08901 3.15133 1.10608 3.21063 1.1416 3.25879L2.0957 4.54492C1.97935 4.77827 1.87997 5.01915 1.79785 5.2666L0.213868 5.50098C0.154342 5.50968 0.0999492 5.53955 0.0606662 5.58511C0.0213832 5.63067 -0.000155598 5.68887 8.4627e-07 5.74902V8.24902C4.42846e-05 8.30887 0.0215516 8.36671 0.060616 8.41205C0.0996804 8.45738 0.15371 8.48721 0.212891 8.49609L1.79981 8.73145C1.88206 8.9779 1.98144 9.21784 2.09766 9.4502L1.1416 10.7383C1.10582 10.7865 1.08859 10.846 1.09307 10.9059C1.09756 10.9658 1.12345 11.0221 1.16602 11.0645L2.93457 12.833C2.97706 12.8754 3.03341 12.9011 3.09329 12.9054C3.15318 12.9097 3.21262 12.8924 3.26074 12.8564L4.5459 11.9033C4.7795 12.0198 5.02079 12.1189 5.26856 12.2012L5.50098 13.7715V13.7734L5.50293 13.7852C5.50736 13.818 5.51828 13.8497 5.53507 13.8783C5.55185 13.9069 5.57417 13.9319 5.60071 13.9518C5.62725 13.9717 5.65748 13.9862 5.68965 13.9943C5.72182 14.0024 5.75528 14.004 5.78809 13.999H8.21192C8.24643 14.0044 8.28169 14.0025 8.31542 13.9934C8.34915 13.9843 8.3806 13.9682 8.40774 13.9462C8.43488 13.9242 8.45712 13.8968 8.47301 13.8657C8.4889 13.8346 8.49809 13.8005 8.5 13.7656L8.73242 12.1992C8.97936 12.1168 9.21935 12.0178 9.45215 11.9014L10.7393 12.8564C10.7875 12.8922 10.847 12.9095 10.9069 12.905C10.9668 12.9005 11.0231 12.8746 11.0654 12.832L12.834 11.0635C12.8763 11.0212 12.902 10.9651 12.9065 10.9054C12.911 10.8457 12.8939 10.7864 12.8584 10.7383L11.9043 9.45117C12.0207 9.21782 12.12 8.97792 12.2021 8.73047L13.7861 8.49512C13.8453 8.48647 13.8995 8.45688 13.9387 8.41173C13.9779 8.36657 13.9997 8.30884 14 8.24902V5.74902C14.0002 5.68901 13.9788 5.63093 13.9397 5.58539C13.9006 5.53985 13.8465 5.50989 13.7871 5.50098L12.2002 5.26562C12.1179 5.01918 12.0186 4.77922 11.9023 4.54688L12.8584 3.25879C12.8939 3.21063 12.911 3.15133 12.9065 3.09166C12.902 3.03199 12.8763 2.97591 12.834 2.93359L11.0654 1.16504C11.0232 1.12233 10.967 1.09625 10.9071 1.09159C10.8472 1.08693 10.7876 1.10399 10.7393 1.13965L9.4541 2.09277C9.2205 1.97627 8.97922 1.87717 8.73145 1.79492L8.49707 0.210938C8.48797 0.151935 8.45806 0.0981355 8.41274 0.0592682C8.36743 0.020401 8.3097 -0.000968723 8.25 -0.000976562H5.75ZM5.96582 0.499023H8.03418L8.25781 2.00781C8.26475 2.05489 8.28497 2.09901 8.31611 2.13499C8.34725 2.17097 8.388 2.19732 8.43359 2.21094C8.75908 2.30799 9.07391 2.43778 9.37305 2.59863C9.4149 2.62114 9.46229 2.63126 9.50968 2.6278C9.55707 2.62434 9.60249 2.60745 9.64063 2.5791L10.8643 1.6709L12.3281 3.13379L11.417 4.36133C11.3888 4.39956 11.3721 4.44503 11.3688 4.49242C11.3655 4.53981 11.3758 4.58715 11.3984 4.62891C11.5591 4.92691 11.6889 5.24025 11.7861 5.56445C11.7997 5.60991 11.8259 5.65058 11.8617 5.6817C11.8975 5.71283 11.9414 5.73313 11.9883 5.74023L13.5 5.96387V8.0332L11.9912 8.25586C11.9441 8.26279 11.9 8.28302 11.864 8.31415C11.8281 8.34529 11.8017 8.38605 11.7881 8.43164C11.691 8.75714 11.5612 9.07199 11.4004 9.37109C11.3777 9.41285 11.3675 9.46019 11.3708 9.50758C11.374 9.55497 11.3908 9.60044 11.4189 9.63867L12.3281 10.8633L10.8643 12.3262L9.6377 11.416C9.59956 11.3877 9.55414 11.3708 9.50675 11.3673C9.45936 11.3639 9.41197 11.374 9.37012 11.3965C9.09282 11.546 8.80044 11.666 8.5 11.7607V9.59277C9.39517 9.07301 10 8.10633 10 6.99902C9.9987 5.87337 9.36596 4.8427 8.36328 4.33105C8.32526 4.31173 8.28292 4.30246 8.2403 4.30412C8.19768 4.30578 8.15619 4.31831 8.11979 4.34053C8.08338 4.36275 8.05326 4.39391 8.03229 4.43105C8.01132 4.46819 8.00021 4.51008 8 4.55273V6.85742L7 7.45703L6 6.85742V4.5498C6.00001 4.51631 5.9933 4.48315 5.98025 4.4523C5.96719 4.42145 5.94808 4.39353 5.92403 4.37021C5.89998 4.3469 5.87149 4.32865 5.84026 4.31655C5.80902 4.30446 5.77567 4.29876 5.74219 4.2998C5.70545 4.30106 5.66944 4.31039 5.63672 4.32715C4.63303 4.83935 4.00012 5.87217 4 6.99902C4 8.10633 4.60483 9.07301 5.5 9.59277V11.7627C5.19844 11.6681 4.90538 11.5482 4.62695 11.3984C4.58511 11.3759 4.53771 11.3658 4.49032 11.3693C4.44293 11.3727 4.39751 11.3896 4.35938 11.418L3.13574 12.3262L1.67188 10.8633L2.58301 9.63574C2.6112 9.59751 2.62792 9.55204 2.6312 9.50465C2.63449 9.45726 2.62421 9.40992 2.60156 9.36816C2.44095 9.07016 2.31114 8.75682 2.21387 8.43262C2.20032 8.38716 2.17412 8.34649 2.13832 8.31537C2.10253 8.28424 2.05862 8.26394 2.01172 8.25684L0.500001 8.0332V5.96484L2.00879 5.74121C2.05587 5.73428 2.09998 5.71405 2.13596 5.68292C2.17195 5.65178 2.19829 5.61102 2.21192 5.56543C2.30896 5.23993 2.43877 4.92508 2.59961 4.62598C2.62226 4.58422 2.63254 4.53688 2.62925 4.48949C2.62596 4.4421 2.60925 4.39663 2.58106 4.3584L1.67188 3.13379L3.13574 1.6709L4.36231 2.58105C4.40044 2.6094 4.44586 2.62629 4.49325 2.62975C4.54064 2.63321 4.58804 2.62309 4.62988 2.60059C4.92783 2.43999 5.2422 2.30921 5.56641 2.21191C5.61168 2.19821 5.65214 2.17194 5.68308 2.13615C5.71403 2.10037 5.73418 2.05655 5.74121 2.00977L5.96582 0.499023ZM5.5 5.1084V6.99902C5.50006 7.04208 5.51124 7.08439 5.53246 7.12186C5.55367 7.15933 5.5842 7.19069 5.6211 7.21289L6.8711 7.96289C6.91002 7.98631 6.95458 7.99868 7 7.99868C7.04542 7.99868 7.08999 7.98631 7.12891 7.96289L8.37891 7.21289C8.4158 7.19069 8.44633 7.15933 8.46755 7.12186C8.48876 7.08439 8.49994 7.04208 8.5 6.99902V5.11133C9.08525 5.57938 9.49911 6.23142 9.5 6.99902C9.5 8.38267 8.38367 9.49902 7 9.49902C5.61633 9.49902 4.5 8.38267 4.5 6.99902C4.50008 6.23057 4.91416 5.57705 5.5 5.1084ZM6 9.82324C6.31348 9.93468 6.64883 9.99902 7 9.99902C7.35117 9.99902 7.68652 9.93468 8 9.82324V13.499H6V9.82324Z" fill="black"/>
</svg>
