<svg width="8" height="14" viewBox="0 0 8 14" fill="none" xmlns="http://www.w3.org/2000/svg">
<path d="M7.37174 0.409245C7.23991 0.277573 7.0612 0.203613 6.87487 0.203613C6.68854 0.203613 6.50983 0.277573 6.37799 0.409245L0.284245 6.50299C0.152573 6.63483 0.0786133 6.81354 0.0786133 6.99987C0.0786133 7.1862 0.152573 7.36491 0.284245 7.49674L6.37799 13.5905C6.51128 13.7147 6.68757 13.7823 6.86973 13.7791C7.05189 13.7759 7.22569 13.7021 7.35451 13.5733C7.48334 13.4444 7.55713 13.2706 7.56034 13.0885C7.56356 12.9063 7.49594 12.73 7.37174 12.5967L1.77487 6.99987L7.37174 1.40299C7.50342 1.27116 7.57737 1.09245 7.57737 0.906119C7.57737 0.719791 7.50342 0.541081 7.37174 0.409245Z" fill="#2C2E34"/>
</svg>
